<svg width="36" height="12" viewBox="0 0 36 12" fill="none" xmlns="http://www.w3.org/2000/svg">
<rect width="36" height="12" rx="3" fill="#3E81F0"/>
<path d="M5.81392 4.59091V7.5H5.28693V4.59091H5.81392ZM6.36186 7.5V5.31818H6.85334V5.68892H6.87891C6.92436 5.56392 6.99964 5.46638 7.10476 5.39631C7.20987 5.32528 7.33535 5.28977 7.48118 5.28977C7.62891 5.28977 7.75343 5.32576 7.85476 5.39773C7.95703 5.46875 8.029 5.56581 8.07067 5.68892H8.09339C8.14169 5.56771 8.22313 5.47112 8.33771 5.39915C8.45324 5.32623 8.59008 5.28977 8.74822 5.28977C8.94898 5.28977 9.11281 5.35322 9.2397 5.48011C9.3666 5.60701 9.43004 5.79214 9.43004 6.03551V7.5H8.91442V6.11506C8.91442 5.97964 8.87843 5.88068 8.80646 5.81818C8.73449 5.75473 8.64643 5.72301 8.54226 5.72301C8.41821 5.72301 8.32114 5.76184 8.25107 5.83949C8.18194 5.91619 8.14737 6.0161 8.14737 6.1392V7.5H7.64311V6.09375C7.64311 5.98106 7.60902 5.8911 7.54084 5.82386C7.4736 5.75663 7.38554 5.72301 7.27663 5.72301C7.20277 5.72301 7.13554 5.74195 7.07493 5.77983C7.01432 5.81676 6.96603 5.86932 6.93004 5.9375C6.89406 6.00473 6.87607 6.08333 6.87607 6.1733V7.5H6.36186ZM9.9517 8.31818V5.31818H10.4574V5.67898H10.4872C10.5137 5.62595 10.5511 5.5696 10.5994 5.50994C10.6477 5.44934 10.7131 5.39773 10.7955 5.35511C10.8778 5.31155 10.983 5.28977 11.1108 5.28977C11.2794 5.28977 11.4313 5.33286 11.5668 5.41903C11.7031 5.50426 11.8111 5.63068 11.8906 5.7983C11.9711 5.96496 12.0114 6.16951 12.0114 6.41193C12.0114 6.65152 11.9721 6.85511 11.8935 7.02273C11.8149 7.19034 11.7079 7.31818 11.5724 7.40625C11.437 7.49432 11.2836 7.53835 11.1122 7.53835C10.9872 7.53835 10.8835 7.51752 10.8011 7.47585C10.7188 7.43419 10.6525 7.384 10.6023 7.32528C10.553 7.26562 10.5147 7.20928 10.4872 7.15625H10.4659V8.31818H9.9517ZM10.456 6.40909C10.456 6.55019 10.4759 6.67377 10.5156 6.77983C10.5563 6.88589 10.6146 6.96875 10.6903 7.02841C10.767 7.08712 10.8598 7.11648 10.9688 7.11648C11.0824 7.11648 11.1776 7.08617 11.2543 7.02557C11.331 6.96402 11.3887 6.88021 11.4276 6.77415C11.4673 6.66714 11.4872 6.54545 11.4872 6.40909C11.4872 6.27367 11.4678 6.15341 11.429 6.0483C11.3902 5.94318 11.3324 5.8608 11.2557 5.80114C11.179 5.74148 11.0833 5.71165 10.9688 5.71165C10.8589 5.71165 10.7656 5.74053 10.6889 5.7983C10.6122 5.85606 10.554 5.93703 10.5142 6.04119C10.4754 6.14536 10.456 6.26799 10.456 6.40909ZM13.4034 7.54261C13.1903 7.54261 13.0057 7.49574 12.8494 7.40199C12.6932 7.30824 12.572 7.17708 12.4858 7.00852C12.4006 6.83996 12.358 6.64299 12.358 6.41761C12.358 6.19223 12.4006 5.99479 12.4858 5.82528C12.572 5.65578 12.6932 5.52415 12.8494 5.4304C13.0057 5.33665 13.1903 5.28977 13.4034 5.28977C13.6165 5.28977 13.8011 5.33665 13.9574 5.4304C14.1136 5.52415 14.2344 5.65578 14.3196 5.82528C14.4058 5.99479 14.4489 6.19223 14.4489 6.41761C14.4489 6.64299 14.4058 6.83996 14.3196 7.00852C14.2344 7.17708 14.1136 7.30824 13.9574 7.40199C13.8011 7.49574 13.6165 7.54261 13.4034 7.54261ZM13.4062 7.13068C13.5218 7.13068 13.6184 7.09896 13.696 7.03551C13.7737 6.97112 13.8314 6.88494 13.8693 6.77699C13.9081 6.66903 13.9276 6.54877 13.9276 6.41619C13.9276 6.28267 13.9081 6.16193 13.8693 6.05398C13.8314 5.94508 13.7737 5.85843 13.696 5.79403C13.6184 5.72964 13.5218 5.69744 13.4062 5.69744C13.2879 5.69744 13.1894 5.72964 13.1108 5.79403C13.0331 5.85843 12.9749 5.94508 12.9361 6.05398C12.8982 6.16193 12.8793 6.28267 12.8793 6.41619C12.8793 6.54877 12.8982 6.66903 12.9361 6.77699C12.9749 6.88494 13.0331 6.97112 13.1108 7.03551C13.1894 7.09896 13.2879 7.13068 13.4062 7.13068ZM14.8853 7.5V5.31818H15.3839V5.68182H15.4066C15.4464 5.55587 15.5146 5.45881 15.6112 5.39062C15.7087 5.3215 15.82 5.28693 15.945 5.28693C15.9734 5.28693 16.0051 5.28835 16.0401 5.29119C16.0761 5.29309 16.1059 5.2964 16.1296 5.30114V5.77415C16.1078 5.76657 16.0733 5.75994 16.0259 5.75426C15.9795 5.74763 15.9345 5.74432 15.891 5.74432C15.7972 5.74432 15.7129 5.76468 15.6381 5.8054C15.5643 5.84517 15.506 5.90057 15.4634 5.97159C15.4208 6.04261 15.3995 6.12453 15.3995 6.21733V7.5H14.8853ZM17.6779 5.31818V5.71591H16.4237V5.31818H17.6779ZM16.7333 4.79545H17.2475V6.84375C17.2475 6.91288 17.2579 6.96591 17.2788 7.00284C17.3005 7.03883 17.329 7.06345 17.364 7.0767C17.399 7.08996 17.4379 7.09659 17.4805 7.09659C17.5127 7.09659 17.542 7.09422 17.5685 7.08949C17.596 7.08475 17.6168 7.08049 17.631 7.0767L17.7177 7.47869C17.6902 7.48816 17.6509 7.49858 17.5998 7.50994C17.5496 7.52131 17.488 7.52794 17.4151 7.52983C17.2863 7.53362 17.1703 7.5142 17.0671 7.47159C16.9639 7.42803 16.882 7.3608 16.8214 7.26989C16.7617 7.17898 16.7324 7.06534 16.7333 6.92898V4.79545ZM19.1229 4.59091H19.7678L20.6314 6.69886H20.6655L21.5291 4.59091H22.174V7.5H21.6683V5.50142H21.6413L20.8374 7.49148H20.4595L19.6555 5.49716H19.6286V7.5H19.1229V4.59091ZM23.6768 7.54261C23.4638 7.54261 23.2791 7.49574 23.1229 7.40199C22.9666 7.30824 22.8454 7.17708 22.7592 7.00852C22.674 6.83996 22.6314 6.64299 22.6314 6.41761C22.6314 6.19223 22.674 5.99479 22.7592 5.82528C22.8454 5.65578 22.9666 5.52415 23.1229 5.4304C23.2791 5.33665 23.4638 5.28977 23.6768 5.28977C23.8899 5.28977 24.0746 5.33665 24.2308 5.4304C24.3871 5.52415 24.5078 5.65578 24.593 5.82528C24.6792 5.99479 24.7223 6.19223 24.7223 6.41761C24.7223 6.64299 24.6792 6.83996 24.593 7.00852C24.5078 7.17708 24.3871 7.30824 24.2308 7.40199C24.0746 7.49574 23.8899 7.54261 23.6768 7.54261ZM23.6797 7.13068C23.7952 7.13068 23.8918 7.09896 23.9695 7.03551C24.0471 6.97112 24.1049 6.88494 24.1428 6.77699C24.1816 6.66903 24.201 6.54877 24.201 6.41619C24.201 6.28267 24.1816 6.16193 24.1428 6.05398C24.1049 5.94508 24.0471 5.85843 23.9695 5.79403C23.8918 5.72964 23.7952 5.69744 23.6797 5.69744C23.5613 5.69744 23.4628 5.72964 23.3842 5.79403C23.3066 5.85843 23.2483 5.94508 23.2095 6.05398C23.1716 6.16193 23.1527 6.28267 23.1527 6.41619C23.1527 6.54877 23.1716 6.66903 23.2095 6.77699C23.2483 6.88494 23.3066 6.97112 23.3842 7.03551C23.4628 7.09896 23.5613 7.13068 23.6797 7.13068ZM25.9684 7.53835C25.797 7.53835 25.6436 7.49432 25.5082 7.40625C25.3728 7.31818 25.2657 7.19034 25.1871 7.02273C25.1085 6.85511 25.0692 6.65152 25.0692 6.41193C25.0692 6.16951 25.109 5.96496 25.1886 5.7983C25.2691 5.63068 25.3775 5.50426 25.5138 5.41903C25.6502 5.33286 25.8022 5.28977 25.9698 5.28977C26.0977 5.28977 26.2028 5.31155 26.2852 5.35511C26.3675 5.39773 26.4329 5.44934 26.4812 5.50994C26.5295 5.5696 26.5669 5.62595 26.5934 5.67898H26.6147V4.59091H27.1303V7.5H26.6246V7.15625H26.5934C26.5669 7.20928 26.5285 7.26562 26.4783 7.32528C26.4281 7.384 26.3619 7.43419 26.2795 7.47585C26.1971 7.51752 26.0934 7.53835 25.9684 7.53835ZM26.1119 7.11648C26.2208 7.11648 26.3136 7.08712 26.3903 7.02841C26.467 6.96875 26.5252 6.88589 26.565 6.77983C26.6048 6.67377 26.6246 6.55019 26.6246 6.40909C26.6246 6.26799 26.6048 6.14536 26.565 6.04119C26.5262 5.93703 26.4684 5.85606 26.3917 5.7983C26.3159 5.74053 26.2227 5.71165 26.1119 5.71165C25.9973 5.71165 25.9016 5.74148 25.8249 5.80114C25.7482 5.8608 25.6905 5.94318 25.6516 6.0483C25.6128 6.15341 25.5934 6.27367 25.5934 6.40909C25.5934 6.54545 25.6128 6.66714 25.6516 6.77415C25.6914 6.88021 25.7496 6.96402 25.8263 7.02557C25.904 7.08617 25.9992 7.11648 26.1119 7.11648ZM28.6442 7.54261C28.4254 7.54261 28.2365 7.49716 28.0774 7.40625C27.9193 7.31439 27.7976 7.18466 27.7124 7.01705C27.6271 6.84848 27.5845 6.65009 27.5845 6.42188C27.5845 6.19744 27.6271 6.00047 27.7124 5.83097C27.7985 5.66051 27.9188 5.52794 28.0732 5.43324C28.2275 5.33759 28.4089 5.28977 28.6172 5.28977C28.7517 5.28977 28.8786 5.31155 28.9979 5.35511C29.1181 5.39773 29.2242 5.46402 29.3161 5.55398C29.4089 5.64394 29.4818 5.75852 29.5348 5.89773C29.5878 6.03598 29.6143 6.20076 29.6143 6.39205V6.54972H27.826V6.20312H29.1214C29.1205 6.10464 29.0992 6.01705 29.0575 5.94034C29.0159 5.86269 28.9576 5.80161 28.8828 5.7571C28.8089 5.71259 28.7228 5.69034 28.6243 5.69034C28.5192 5.69034 28.4268 5.71591 28.3473 5.76705C28.2678 5.81723 28.2057 5.88352 28.1612 5.96591C28.1177 6.04735 28.0954 6.13684 28.0945 6.23438V6.53693C28.0945 6.66383 28.1177 6.77273 28.1641 6.86364C28.2105 6.9536 28.2753 7.02273 28.3587 7.07102C28.442 7.11837 28.5395 7.14205 28.6513 7.14205C28.7261 7.14205 28.7938 7.13163 28.8544 7.1108C28.915 7.08902 28.9676 7.05729 29.0121 7.01562C29.0566 6.97396 29.0902 6.92235 29.1129 6.8608L29.593 6.91477C29.5627 7.04167 29.505 7.15246 29.4197 7.24716C29.3355 7.34091 29.2275 7.41383 29.0959 7.46591C28.9643 7.51705 28.8137 7.54261 28.6442 7.54261ZM30.5636 4.59091V7.5H30.0494V4.59091H30.5636Z" fill="white"/>
</svg>
