<svg width="36" height="12" viewBox="0 0 36 12" fill="none" xmlns="http://www.w3.org/2000/svg">
<rect width="36" height="12" rx="3" fill="#3E81F0"/>
<path d="M6.28693 7.5V4.59091H7.37784C7.60133 4.59091 7.78883 4.62973 7.94034 4.70739C8.0928 4.78504 8.20786 4.89394 8.28551 5.03409C8.36411 5.1733 8.40341 5.3357 8.40341 5.52131C8.40341 5.70786 8.36364 5.86979 8.28409 6.0071C8.20549 6.14347 8.08949 6.24905 7.93608 6.32386C7.78267 6.39773 7.59422 6.43466 7.37074 6.43466H6.59375V5.99716H7.29972C7.4304 5.99716 7.53741 5.97917 7.62074 5.94318C7.70407 5.90625 7.76563 5.85275 7.8054 5.78267C7.84612 5.71165 7.86648 5.62453 7.86648 5.52131C7.86648 5.41809 7.84612 5.33002 7.8054 5.2571C7.76468 5.18324 7.70265 5.12737 7.61932 5.08949C7.53598 5.05066 7.4285 5.03125 7.29688 5.03125H6.81392V7.5H6.28693ZM7.78977 6.18182L8.50994 7.5H7.92188L7.21449 6.18182H7.78977ZM9.80043 7.54261C9.58168 7.54261 9.39276 7.49716 9.23366 7.40625C9.07552 7.31439 8.95384 7.18466 8.86861 7.01705C8.78338 6.84848 8.74077 6.65009 8.74077 6.42188C8.74077 6.19744 8.78338 6.00047 8.86861 5.83097C8.95478 5.66051 9.07505 5.52794 9.2294 5.43324C9.38376 5.33759 9.5651 5.28977 9.77344 5.28977C9.90791 5.28977 10.0348 5.31155 10.1541 5.35511C10.2744 5.39773 10.3804 5.46402 10.4723 5.55398C10.5651 5.64394 10.638 5.75852 10.6911 5.89773C10.7441 6.03598 10.7706 6.20076 10.7706 6.39205V6.54972H8.98224V6.20312H10.2777C10.2768 6.10464 10.2554 6.01705 10.2138 5.94034C10.1721 5.86269 10.1139 5.80161 10.0391 5.7571C9.9652 5.71259 9.87902 5.69034 9.78054 5.69034C9.67543 5.69034 9.5831 5.71591 9.50355 5.76705C9.42401 5.81723 9.36198 5.88352 9.31747 5.96591C9.27391 6.04735 9.25166 6.13684 9.25071 6.23438V6.53693C9.25071 6.66383 9.27391 6.77273 9.32031 6.86364C9.36671 6.9536 9.43158 7.02273 9.51491 7.07102C9.59825 7.11837 9.69579 7.14205 9.80753 7.14205C9.88234 7.14205 9.95005 7.13163 10.0107 7.1108C10.0713 7.08902 10.1238 7.05729 10.1683 7.01562C10.2128 6.97396 10.2464 6.92235 10.2692 6.8608L10.7493 6.91477C10.719 7.04167 10.6612 7.15246 10.576 7.24716C10.4917 7.34091 10.3838 7.41383 10.2521 7.46591C10.1205 7.51705 9.96993 7.54261 9.80043 7.54261ZM12.93 5.89489L12.4613 5.94602C12.448 5.89867 12.4248 5.85417 12.3917 5.8125C12.3595 5.77083 12.3159 5.73722 12.261 5.71165C12.2061 5.68608 12.1388 5.6733 12.0593 5.6733C11.9523 5.6733 11.8623 5.6965 11.7894 5.7429C11.7174 5.7893 11.6819 5.84943 11.6829 5.9233C11.6819 5.98674 11.7051 6.03835 11.7525 6.07812C11.8008 6.1179 11.8803 6.15057 11.9911 6.17614L12.3633 6.25568C12.5697 6.30019 12.7231 6.37074 12.8235 6.46733C12.9248 6.56392 12.976 6.69034 12.9769 6.84659C12.976 6.9839 12.9357 7.10511 12.8562 7.21023C12.7776 7.31439 12.6682 7.39583 12.5281 7.45455C12.3879 7.51326 12.2269 7.54261 12.0451 7.54261C11.7781 7.54261 11.5631 7.48674 11.4002 7.375C11.2373 7.26231 11.1403 7.10559 11.109 6.90483L11.6104 6.85653C11.6332 6.95502 11.6815 7.02936 11.7553 7.07955C11.8292 7.12973 11.9253 7.15483 12.0437 7.15483C12.1658 7.15483 12.2638 7.12973 12.3377 7.07955C12.4125 7.02936 12.4499 6.96733 12.4499 6.89347C12.4499 6.83097 12.4258 6.77936 12.3775 6.73864C12.3301 6.69792 12.2563 6.66667 12.1559 6.64489L11.7837 6.56676C11.5745 6.5232 11.4196 6.44981 11.3192 6.34659C11.2189 6.24242 11.1692 6.1108 11.1701 5.9517C11.1692 5.81723 11.2056 5.70076 11.2795 5.60227C11.3543 5.50284 11.458 5.42614 11.5906 5.37216C11.7241 5.31723 11.878 5.28977 12.0522 5.28977C12.3079 5.28977 12.5091 5.34422 12.6559 5.45312C12.8036 5.56203 12.895 5.70928 12.93 5.89489ZM14.3668 7.54261C14.1481 7.54261 13.9592 7.49716 13.8001 7.40625C13.6419 7.31439 13.5202 7.18466 13.435 7.01705C13.3498 6.84848 13.3072 6.65009 13.3072 6.42188C13.3072 6.19744 13.3498 6.00047 13.435 5.83097C13.5212 5.66051 13.6415 5.52794 13.7958 5.43324C13.9502 5.33759 14.1315 5.28977 14.3398 5.28977C14.4743 5.28977 14.6012 5.31155 14.7205 5.35511C14.8408 5.39773 14.9469 5.46402 15.0387 5.55398C15.1315 5.64394 15.2044 5.75852 15.2575 5.89773C15.3105 6.03598 15.337 6.20076 15.337 6.39205V6.54972H13.5487V6.20312H14.8441C14.8432 6.10464 14.8219 6.01705 14.7802 5.94034C14.7385 5.86269 14.6803 5.80161 14.6055 5.7571C14.5316 5.71259 14.4454 5.69034 14.3469 5.69034C14.2418 5.69034 14.1495 5.71591 14.07 5.76705C13.9904 5.81723 13.9284 5.88352 13.8839 5.96591C13.8403 6.04735 13.8181 6.13684 13.8171 6.23438V6.53693C13.8171 6.66383 13.8403 6.77273 13.8867 6.86364C13.9331 6.9536 13.998 7.02273 14.0813 7.07102C14.1647 7.11837 14.2622 7.14205 14.3739 7.14205C14.4487 7.14205 14.5165 7.13163 14.5771 7.1108C14.6377 7.08902 14.6902 7.05729 14.7347 7.01562C14.7792 6.97396 14.8129 6.92235 14.8356 6.8608L15.3157 6.91477C15.2854 7.04167 15.2276 7.15246 15.1424 7.24716C15.0581 7.34091 14.9502 7.41383 14.8185 7.46591C14.6869 7.51705 14.5363 7.54261 14.3668 7.54261ZM16.8615 5.31818V5.71591H15.6072V5.31818H16.8615ZM15.9169 4.79545H16.4311V6.84375C16.4311 6.91288 16.4415 6.96591 16.4624 7.00284C16.4841 7.03883 16.5125 7.06345 16.5476 7.0767C16.5826 7.08996 16.6214 7.09659 16.6641 7.09659C16.6963 7.09659 16.7256 7.09422 16.7521 7.08949C16.7796 7.08475 16.8004 7.08049 16.8146 7.0767L16.9013 7.47869C16.8738 7.48816 16.8345 7.49858 16.7834 7.50994C16.7332 7.52131 16.6716 7.52794 16.5987 7.52983C16.4699 7.53362 16.3539 7.5142 16.2507 7.47159C16.1475 7.42803 16.0656 7.3608 16.005 7.26989C15.9453 7.17898 15.916 7.06534 15.9169 6.92898V4.79545ZM18.3065 4.59091H18.9513L19.815 6.69886H19.8491L20.7127 4.59091H21.3576V7.5H20.8519V5.50142H20.8249L20.021 7.49148H19.6431L18.8391 5.49716H18.8121V7.5H18.3065V4.59091ZM22.8604 7.54261C22.6474 7.54261 22.4627 7.49574 22.3065 7.40199C22.1502 7.30824 22.029 7.17708 21.9428 7.00852C21.8576 6.83996 21.815 6.64299 21.815 6.41761C21.815 6.19223 21.8576 5.99479 21.9428 5.82528C22.029 5.65578 22.1502 5.52415 22.3065 5.4304C22.4627 5.33665 22.6474 5.28977 22.8604 5.28977C23.0735 5.28977 23.2582 5.33665 23.4144 5.4304C23.5707 5.52415 23.6914 5.65578 23.7766 5.82528C23.8628 5.99479 23.9059 6.19223 23.9059 6.41761C23.9059 6.64299 23.8628 6.83996 23.7766 7.00852C23.6914 7.17708 23.5707 7.30824 23.4144 7.40199C23.2582 7.49574 23.0735 7.54261 22.8604 7.54261ZM22.8633 7.13068C22.9788 7.13068 23.0754 7.09896 23.1531 7.03551C23.2307 6.97112 23.2885 6.88494 23.3263 6.77699C23.3652 6.66903 23.3846 6.54877 23.3846 6.41619C23.3846 6.28267 23.3652 6.16193 23.3263 6.05398C23.2885 5.94508 23.2307 5.85843 23.1531 5.79403C23.0754 5.72964 22.9788 5.69744 22.8633 5.69744C22.7449 5.69744 22.6464 5.72964 22.5678 5.79403C22.4902 5.85843 22.4319 5.94508 22.3931 6.05398C22.3552 6.16193 22.3363 6.28267 22.3363 6.41619C22.3363 6.54877 22.3552 6.66903 22.3931 6.77699C22.4319 6.88494 22.4902 6.97112 22.5678 7.03551C22.6464 7.09896 22.7449 7.13068 22.8633 7.13068ZM25.152 7.53835C24.9806 7.53835 24.8272 7.49432 24.6918 7.40625C24.5563 7.31818 24.4493 7.19034 24.3707 7.02273C24.2921 6.85511 24.2528 6.65152 24.2528 6.41193C24.2528 6.16951 24.2926 5.96496 24.3722 5.7983C24.4527 5.63068 24.5611 5.50426 24.6974 5.41903C24.8338 5.33286 24.9858 5.28977 25.1534 5.28977C25.2813 5.28977 25.3864 5.31155 25.4688 5.35511C25.5511 5.39773 25.6165 5.44934 25.6648 5.50994C25.7131 5.5696 25.7505 5.62595 25.777 5.67898H25.7983V4.59091H26.3139V7.5H25.8082V7.15625H25.777C25.7505 7.20928 25.7121 7.26562 25.6619 7.32528C25.6117 7.384 25.5455 7.43419 25.4631 7.47585C25.3807 7.51752 25.277 7.53835 25.152 7.53835ZM25.2955 7.11648C25.4044 7.11648 25.4972 7.08712 25.5739 7.02841C25.6506 6.96875 25.7088 6.88589 25.7486 6.77983C25.7884 6.67377 25.8082 6.55019 25.8082 6.40909C25.8082 6.26799 25.7884 6.14536 25.7486 6.04119C25.7098 5.93703 25.652 5.85606 25.5753 5.7983C25.4995 5.74053 25.4063 5.71165 25.2955 5.71165C25.1809 5.71165 25.0852 5.74148 25.0085 5.80114C24.9318 5.8608 24.8741 5.94318 24.8352 6.0483C24.7964 6.15341 24.777 6.27367 24.777 6.40909C24.777 6.54545 24.7964 6.66714 24.8352 6.77415C24.875 6.88021 24.9332 6.96402 25.0099 7.02557C25.0876 7.08617 25.1828 7.11648 25.2955 7.11648ZM27.8278 7.54261C27.609 7.54261 27.4201 7.49716 27.261 7.40625C27.1029 7.31439 26.9812 7.18466 26.896 7.01705C26.8107 6.84848 26.7681 6.65009 26.7681 6.42188C26.7681 6.19744 26.8107 6.00047 26.896 5.83097C26.9821 5.66051 27.1024 5.52794 27.2567 5.43324C27.4111 5.33759 27.5924 5.28977 27.8008 5.28977C27.9353 5.28977 28.0621 5.31155 28.1815 5.35511C28.3017 5.39773 28.4078 5.46402 28.4996 5.55398C28.5924 5.64394 28.6654 5.75852 28.7184 5.89773C28.7714 6.03598 28.7979 6.20076 28.7979 6.39205V6.54972H27.0096V6.20312H28.305C28.3041 6.10464 28.2828 6.01705 28.2411 5.94034C28.1995 5.86269 28.1412 5.80161 28.0664 5.7571C27.9925 5.71259 27.9064 5.69034 27.8079 5.69034C27.7028 5.69034 27.6104 5.71591 27.5309 5.76705C27.4513 5.81723 27.3893 5.88352 27.3448 5.96591C27.3013 6.04735 27.279 6.13684 27.2781 6.23438V6.53693C27.2781 6.66383 27.3013 6.77273 27.3477 6.86364C27.3941 6.9536 27.4589 7.02273 27.5423 7.07102C27.6256 7.11837 27.7231 7.14205 27.8349 7.14205C27.9097 7.14205 27.9774 7.13163 28.038 7.1108C28.0986 7.08902 28.1512 7.05729 28.1957 7.01562C28.2402 6.97396 28.2738 6.92235 28.2965 6.8608L28.7766 6.91477C28.7463 7.04167 28.6886 7.15246 28.6033 7.24716C28.5191 7.34091 28.4111 7.41383 28.2795 7.46591C28.1478 7.51705 27.9973 7.54261 27.8278 7.54261ZM29.7472 4.59091V7.5H29.233V4.59091H29.7472Z" fill="white"/>
</svg>
