<svg width="5500" height="4000" viewBox="0 0 5500 4000" fill="none" xmlns="http://www.w3.org/2000/svg">
<mask id="mask0_1029_2718" style="mask-type:alpha" maskUnits="userSpaceOnUse" x="0" y="0" width="5500" height="4000">
<rect width="5500" height="4000" fill="#D9D9D9"/>
</mask>
<g mask="url(#mask0_1029_2718)">
<mask id="mask1_1029_2718" style="mask-type:alpha" maskUnits="userSpaceOnUse" x="0" y="0" width="1100" height="2000">
<path d="M1100 0H0V2000H1100V0Z" fill="#D9D9D9"/>
</mask>
<g mask="url(#mask1_1029_2718)">
<path d="M1100 0H0V2000H1100V0Z" fill="#343434"/>
<path d="M360 1000C360 902.822 379.141 806.595 416.329 716.814C453.518 627.033 508.026 545.456 576.741 476.741C645.456 408.026 727.033 353.518 816.814 316.329C906.595 279.141 1002.82 260 1100 260" stroke="white" stroke-width="20"/>
<path d="M360 1654C360 1611.06 368.458 1568.54 384.891 1528.86C401.325 1489.19 425.411 1453.14 455.776 1422.78C486.141 1392.41 522.189 1368.32 561.863 1351.89C601.536 1335.46 644.058 1327 687 1327" stroke="white" stroke-width="20"/>
<path d="M773 1000C773 957.058 781.458 914.536 797.891 874.863C814.325 835.189 838.411 799.141 868.776 768.776C899.141 738.411 935.189 714.325 974.863 697.891C1014.54 681.458 1057.06 673 1100 673" stroke="white" stroke-width="20"/>
<path d="M772 1980C772 1948.48 778.208 1917.27 790.269 1888.16C802.33 1859.04 820.008 1832.58 842.294 1810.29C864.58 1788.01 891.038 1770.33 920.156 1758.27C949.274 1746.21 980.483 1740 1012 1740" stroke="white" stroke-width="20"/>
<path d="M1100 1317H687V1337H1100V1317Z" fill="white"/>
<path d="M350 1000V1243H370V1000H350Z" fill="white"/>
<path d="M763 1000V1243H783V1000H763Z" fill="white"/>
<path d="M1100 1730H1012V1750H1100V1730Z" fill="white"/>
<path d="M762 1980V2000H782V1980H762Z" fill="white"/>
<path d="M350 1654V2000H370V1654H350Z" fill="white"/>
<path d="M357 1238H773" stroke="white" stroke-width="10" stroke-dasharray="50 50"/>
<path d="M668 974H462C459.239 974 457 976.239 457 979V1212C457 1214.76 459.239 1217 462 1217H668C670.761 1217 673 1214.76 673 1212V979C673 976.239 670.761 974 668 974Z" fill="#414141"/>
<path d="M512.289 1086.73C512.076 1084.93 511.212 1083.53 509.696 1082.54C508.181 1081.54 506.323 1081.05 504.121 1081.05C502.511 1081.05 501.103 1081.31 499.895 1081.83C498.7 1082.35 497.765 1083.06 497.09 1083.98C496.427 1084.89 496.096 1085.92 496.096 1087.08C496.096 1088.05 496.326 1088.89 496.788 1089.59C497.262 1090.27 497.865 1090.85 498.599 1091.31C499.333 1091.76 500.102 1092.13 500.907 1092.43C501.712 1092.71 502.452 1092.94 503.127 1093.12L506.82 1094.11C507.767 1094.36 508.82 1094.71 509.981 1095.14C511.152 1095.58 512.271 1096.18 513.336 1096.94C514.414 1097.68 515.301 1098.64 516 1099.81C516.698 1100.99 517.047 1102.42 517.047 1104.13C517.047 1106.09 516.532 1107.87 515.503 1109.45C514.485 1111.04 512.993 1112.3 511.028 1113.24C509.075 1114.17 506.702 1114.64 503.908 1114.64C501.304 1114.64 499.049 1114.22 497.143 1113.38C495.249 1112.54 493.758 1111.37 492.669 1109.86C491.592 1108.36 490.982 1106.61 490.84 1104.62H495.385C495.504 1106 495.965 1107.13 496.77 1108.03C497.587 1108.92 498.617 1109.58 499.86 1110.02C501.115 1110.45 502.464 1110.66 503.908 1110.66C505.589 1110.66 507.098 1110.39 508.436 1109.85C509.773 1109.29 510.833 1108.52 511.614 1107.54C512.395 1106.54 512.786 1105.38 512.786 1104.06C512.786 1102.85 512.449 1101.87 511.774 1101.11C511.099 1100.35 510.211 1099.74 509.111 1099.26C508.01 1098.79 506.82 1098.37 505.542 1098.02L501.067 1096.74C498.226 1095.92 495.977 1094.76 494.32 1093.24C492.663 1091.73 491.834 1089.75 491.834 1087.3C491.834 1085.26 492.385 1083.48 493.486 1081.97C494.598 1080.44 496.09 1079.26 497.96 1078.42C499.842 1077.57 501.943 1077.14 504.263 1077.14C506.607 1077.14 508.69 1077.56 510.513 1078.4C512.336 1079.23 513.78 1080.36 514.846 1081.81C515.923 1083.25 516.491 1084.89 516.55 1086.73H512.289ZM522.299 1081.54V1077.64H549.571V1081.54H538.137V1114H533.733V1081.54H522.299ZM553.611 1114H548.994L562.346 1077.64H566.892L580.244 1114H575.628L564.761 1083.39H564.477L553.611 1114ZM555.315 1099.8H573.923V1103.7H555.315V1099.8ZM585.908 1114V1077.64H598.195C601.036 1077.64 603.368 1078.12 605.191 1079.09C607.014 1080.05 608.363 1081.37 609.239 1083.05C610.115 1084.73 610.553 1086.64 610.553 1088.79C610.553 1090.93 610.115 1092.83 609.239 1094.49C608.363 1096.14 607.02 1097.45 605.209 1098.39C603.398 1099.33 601.083 1099.8 598.266 1099.8H588.323V1095.82H598.124C600.065 1095.82 601.628 1095.53 602.812 1094.97C604.007 1094.4 604.871 1093.59 605.404 1092.55C605.949 1091.5 606.221 1090.24 606.221 1088.79C606.221 1087.33 605.949 1086.06 605.404 1084.97C604.86 1083.88 603.989 1083.04 602.794 1082.45C601.598 1081.84 600.018 1081.54 598.053 1081.54H590.312V1114H585.908ZM603.025 1097.66L611.974 1114H606.86L598.053 1097.66H603.025ZM615.902 1081.54V1077.64H643.175V1081.54H631.74V1114H627.337V1081.54H615.902Z" fill="white"/>
<path d="M675.1 80.9493V85.6368H642.373V80.9493H656.095V42.0004H661.379V80.9493H675.1ZM637.968 85.6368H631.917L619.814 65.2674H619.303L607.201 85.6368H601.15L616.917 59.9834V42.0004H622.201V59.9834L637.968 85.6368ZM594.315 42.0004V85.6368H579.571C576.148 85.6368 573.35 85.0189 571.176 83.7831C568.989 82.5615 567.369 80.9066 566.318 78.8186C565.267 76.7305 564.742 74.401 564.742 71.8299C564.742 69.2589 565.267 66.9223 566.318 64.82C567.355 62.7177 568.96 61.0416 571.134 59.7916C573.307 58.5558 576.091 57.9379 579.486 57.9379H590.054V62.6254H579.656C577.313 62.6254 575.431 63.0302 574.01 63.8399C572.59 64.6495 571.56 65.7433 570.921 67.1211C570.267 68.5132 569.94 70.0828 569.94 71.8299C569.94 73.5771 570.267 75.1396 570.921 76.5174C571.56 77.8953 572.597 78.9748 574.031 79.7561C575.466 80.5515 577.369 80.9493 579.742 80.9493H589.031V42.0004H594.315ZM556.23 42.0004V85.6368H529.894V80.9493H550.945V66.2049H531.258V61.5174H550.945V46.6879H529.553V42.0004H556.23ZM502.302 66.1623V61.4748H521.393V66.1623H502.302ZM468.909 74.7277C469.165 76.8868 470.201 78.5629 472.02 79.7561C473.838 80.9493 476.068 81.5459 478.71 81.5459C480.642 81.5459 482.332 81.2334 483.781 80.6084C485.216 79.9834 486.338 79.124 487.148 78.0302C487.943 76.9365 488.341 75.6936 488.341 74.3015C488.341 73.1368 488.064 72.1353 487.51 71.2973C486.942 70.4734 486.217 69.7845 485.336 69.2305C484.456 68.6907 483.532 68.2433 482.567 67.8882C481.601 67.5473 480.713 67.2703 479.903 67.0572L475.471 65.864C474.335 65.5657 473.071 65.1538 471.679 64.6282C470.273 64.1027 468.93 63.3853 467.652 62.4763C466.359 61.5814 465.294 60.4308 464.456 59.0245C463.618 57.6183 463.199 55.8924 463.199 53.847C463.199 51.489 463.817 49.3584 465.052 47.4549C466.274 45.5515 468.064 44.0388 470.422 42.9166C472.765 41.7944 475.613 41.2334 478.966 41.2334C482.091 41.2334 484.797 41.7376 487.084 42.7461C489.356 43.7547 491.146 45.1609 492.453 46.9649C493.746 48.7689 494.477 50.864 494.648 53.2504H489.193C489.051 51.6027 488.497 50.239 487.531 49.1595C486.551 48.0942 485.315 47.2987 483.824 46.7731C482.318 46.2618 480.699 46.0061 478.966 46.0061C476.949 46.0061 475.138 46.3328 473.532 46.9862C471.927 47.6538 470.656 48.5771 469.719 49.7561C468.781 50.9493 468.312 52.3413 468.312 53.9322C468.312 55.3811 468.717 56.5601 469.527 57.4691C470.336 58.3782 471.402 59.1169 472.723 59.6851C474.044 60.2532 475.471 60.7504 477.005 61.1765L482.375 62.7106C485.784 63.6907 488.483 65.0899 490.471 66.9081C492.46 68.7263 493.454 71.1055 493.454 74.0459C493.454 76.489 492.794 78.6197 491.473 80.4379C490.138 82.2703 488.348 83.6907 486.103 84.6993C483.845 85.722 481.324 86.2334 478.54 86.2334C475.727 86.2334 473.227 85.7291 471.04 84.7206C468.852 83.7263 467.119 82.3626 465.841 80.6297C464.548 78.8967 463.866 76.9294 463.795 74.7277H468.909Z" fill="#7E7E7E"/>
</g>
<mask id="mask2_1029_2718" style="mask-type:alpha" maskUnits="userSpaceOnUse" x="4400" y="2000" width="1100" height="2000">
<path d="M5500 2000H4400V4000H5500V2000Z" fill="#D9D9D9"/>
</mask>
<g mask="url(#mask2_1029_2718)">
<path d="M5500 4000H4400V2000H5500V4000Z" fill="#343434"/>
<path d="M4737 3000L4717.37 3003.46L4642.89 2581.07L4662.52 2577.61L4737 3000Z" fill="white"/>
<path d="M5150 3000L5130.37 3003.46L5056.22 2582.93L5075.85 2579.47L5150 3000Z" fill="white"/>
<path d="M5140 3000C5140 3097.18 5120.86 3193.41 5083.67 3283.19C5046.48 3372.97 4991.97 3454.55 4923.26 3523.26C4854.54 3591.98 4772.97 3646.48 4683.19 3683.67C4593.4 3720.86 4497.18 3740 4400 3740" stroke="white" stroke-width="20"/>
<path d="M4727 3000C4727 3042.94 4718.54 3085.47 4702.11 3125.14C4685.68 3164.81 4661.59 3200.86 4631.22 3231.23C4600.86 3261.59 4564.81 3285.68 4525.14 3302.11C4485.46 3318.54 4442.94 3327 4400 3327" stroke="white" stroke-width="20"/>
<path d="M4662.52 2584.54L4642.89 2581.08L4746.66 1992.58L4766.29 1996.05L4662.52 2584.54Z" fill="white"/>
<path d="M5075.85 2586.4L5056.22 2582.94L5160.16 1993.46L5179.79 1996.92L5075.85 2586.4Z" fill="white"/>
<path d="M4841.9 3911.64V3906.95H4874.62V3911.64H4860.9V3950.59H4855.62V3911.64H4841.9ZM4879.03 3906.95H4885.08L4897.18 3927.32H4897.69L4909.8 3906.95H4915.85L4900.08 3932.61V3950.59H4894.8V3932.61L4879.03 3906.95ZM4922.68 3950.59V3906.95H4937.43C4940.85 3906.95 4943.65 3907.57 4945.82 3908.81C4948.01 3910.03 4949.63 3911.68 4950.68 3913.77C4951.73 3915.86 4952.26 3918.19 4952.26 3920.76C4952.26 3923.33 4951.73 3925.67 4950.68 3927.77C4949.64 3929.87 4948.04 3931.55 4945.86 3932.8C4943.69 3934.03 4940.91 3934.65 4937.51 3934.65H4926.94V3929.96H4937.34C4939.69 3929.96 4941.57 3929.56 4942.99 3928.75C4944.41 3927.94 4945.44 3926.85 4946.08 3925.47C4946.73 3924.08 4947.06 3922.51 4947.06 3920.76C4947.06 3919.01 4946.73 3917.45 4946.08 3916.07C4945.44 3914.69 4944.4 3913.62 4942.97 3912.83C4941.53 3912.04 4939.63 3911.64 4937.26 3911.64H4927.97V3950.59H4922.68ZM4960.77 3950.59V3906.95H4987.1V3911.64H4966.05V3926.39H4985.74V3931.07H4966.05V3945.9H4987.44V3950.59H4960.77ZM5014.7 3926.43V3931.12H4995.61V3926.43H5014.7ZM5024.23 3950.59V3906.95H5029.51V3928.6H5030.02L5049.62 3906.95H5056.53L5038.2 3926.64L5056.53 3950.59H5050.13L5034.96 3930.31L5029.51 3936.44V3950.59H5024.23Z" fill="#7E7E7E"/>
</g>
<path d="M2200 2000H3300V4000H2200V2000Z" fill="#343434"/>
<path d="M2560 2844C2560 2746.82 2579.14 2650.6 2616.33 2560.81C2653.52 2471.03 2708.03 2389.46 2776.74 2320.74C2845.46 2252.03 2927.03 2197.52 3016.81 2160.33C3106.6 2123.14 3202.82 2104 3300 2104" stroke="white" stroke-width="20"/>
<path d="M2973 3000C2973 3097.18 2953.86 3193.4 2916.67 3283.19C2879.48 3372.97 2824.97 3454.54 2756.26 3523.26C2687.54 3591.97 2605.97 3646.48 2516.19 3683.67C2426.4 3720.86 2330.18 3740 2233 3740" stroke="white" stroke-width="20"/>
<path d="M2233 3327C2275.94 3327 2318.46 3318.54 2358.14 3302.11C2397.81 3285.68 2433.86 3261.59 2464.22 3231.22C2494.59 3200.86 2518.68 3164.81 2535.11 3125.14C2551.54 3085.46 2560 3042.94 2560 3000" stroke="white" stroke-width="20"/>
<path d="M3300 2517C3257.06 2517 3214.54 2525.46 3174.86 2541.89C3135.19 2558.32 3099.14 2582.41 3068.78 2612.78C3038.41 2643.14 3014.32 2679.19 2997.89 2718.86C2981.46 2758.54 2973 2801.06 2973 2844" stroke="white" stroke-width="20"/>
<path d="M2570 2844V3000H2550V2844H2570Z" fill="white"/>
<path d="M2983 2844V3000H2963V2844H2983Z" fill="white"/>
<path d="M2200 3317H2233V3337H2200V3317Z" fill="white"/>
<path d="M2200 3730H2233V3750H2200V3730Z" fill="white"/>
<path d="M2656.9 3930.05V3925.36H2689.62V3930.05H2675.9V3969H2670.62V3930.05H2656.9ZM2694.03 3925.36H2700.08L2712.18 3945.73H2712.69L2724.8 3925.36H2730.85L2715.08 3951.02V3969H2709.8V3951.02L2694.03 3925.36ZM2737.68 3969V3925.36H2752.43C2755.85 3925.36 2758.65 3925.98 2760.82 3927.22C2763.01 3928.44 2764.63 3930.09 2765.68 3932.18C2766.73 3934.27 2767.26 3936.6 2767.26 3939.17C2767.26 3941.74 2766.73 3944.08 2765.68 3946.18C2764.64 3948.28 2763.04 3949.96 2760.86 3951.21C2758.69 3952.44 2755.91 3953.06 2752.51 3953.06H2741.94V3948.38H2752.34C2754.69 3948.38 2756.57 3947.97 2757.99 3947.16C2759.41 3946.35 2760.44 3945.26 2761.08 3943.88C2761.73 3942.49 2762.06 3940.92 2762.06 3939.17C2762.06 3937.42 2761.73 3935.86 2761.08 3934.48C2760.44 3933.11 2759.4 3932.03 2757.97 3931.24C2756.53 3930.45 2754.63 3930.05 2752.26 3930.05H2742.97V3969H2737.68ZM2775.77 3969V3925.36H2802.1V3930.05H2781.05V3944.8H2800.74V3949.48H2781.05V3964.31H2802.44V3969H2775.77ZM2829.7 3944.84V3949.53H2810.61V3944.84H2829.7ZM2839.23 3969V3925.36H2853.97C2857.38 3925.36 2860.18 3925.95 2862.36 3927.11C2864.55 3928.26 2866.17 3929.85 2867.22 3931.86C2868.27 3933.88 2868.8 3936.17 2868.8 3938.74C2868.8 3941.32 2868.27 3943.6 2867.22 3945.58C2866.17 3947.57 2864.56 3949.13 2862.39 3950.27C2860.21 3951.39 2857.44 3951.95 2854.06 3951.95H2842.12V3947.18H2853.88C2856.21 3947.18 2858.09 3946.84 2859.51 3946.16C2860.94 3945.48 2861.98 3944.51 2862.62 3943.26C2863.27 3942 2863.6 3940.49 2863.6 3938.74C2863.6 3937 2863.27 3935.47 2862.62 3934.16C2861.97 3932.86 2860.92 3931.85 2859.49 3931.14C2858.05 3930.41 2856.16 3930.05 2853.8 3930.05H2844.51V3969H2839.23ZM2859.77 3949.4L2870.5 3969H2864.37L2853.8 3949.4H2859.77ZM2877.6 3969V3925.36H2882.89V3964.31H2903.17V3969H2877.6Z" fill="#7E7E7E"/>
<path d="M1100 2000H0V4000H1100V2000Z" fill="#343434"/>
<path d="M1100 3740C1002.82 3740 906.595 3720.86 816.814 3683.67C727.033 3646.48 645.456 3591.97 576.741 3523.26C508.026 3454.54 453.518 3372.97 416.329 3283.19C379.141 3193.4 360 3097.18 360 3000" stroke="white" stroke-width="20"/>
<path d="M1100 2000H762V2020H1100V2000Z" fill="white"/>
<path d="M350 2000L350 3000.07H370L370 2000H350Z" fill="white"/>
<path d="M441.898 3919.05V3914.36H474.625V3919.05H460.903V3958H455.619V3919.05H441.898ZM479.03 3914.36H485.081L497.184 3934.73H497.695L509.797 3914.36H515.848L500.081 3940.02V3958H494.797V3940.02L479.03 3914.36ZM522.683 3958V3914.36H537.427C540.85 3914.36 543.648 3914.98 545.822 3916.22C548.009 3917.44 549.629 3919.09 550.68 3921.18C551.731 3923.27 552.256 3925.6 552.256 3928.17C552.256 3930.74 551.731 3933.08 550.68 3935.18C549.643 3937.28 548.038 3938.96 545.864 3940.21C543.691 3941.44 540.907 3942.06 537.512 3942.06H526.944V3937.38H537.342C539.685 3937.38 541.567 3936.97 542.988 3936.16C544.408 3935.35 545.438 3934.26 546.077 3932.88C546.731 3931.49 547.058 3929.92 547.058 3928.17C547.058 3926.42 546.731 3924.86 546.077 3923.48C545.438 3922.11 544.401 3921.03 542.967 3920.24C541.532 3919.45 539.629 3919.05 537.256 3919.05H527.967V3958H522.683ZM560.768 3958V3914.36H587.104V3919.05H566.053V3933.8H585.74V3938.48H566.053V3953.31H587.445V3958H560.768ZM614.696 3933.84V3938.53H595.605V3933.84H614.696ZM624.225 3958V3914.36H639.481C642.521 3914.36 645.028 3914.89 647.002 3915.94C648.977 3916.98 650.447 3918.38 651.413 3920.14C652.379 3921.88 652.862 3923.82 652.862 3925.95C652.862 3927.83 652.528 3929.38 651.86 3930.6C651.207 3931.82 650.341 3932.79 649.261 3933.5C648.196 3934.21 647.038 3934.73 645.788 3935.07V3935.5C647.123 3935.59 648.466 3936.05 649.815 3936.91C651.164 3937.76 652.294 3938.98 653.203 3940.57C654.112 3942.16 654.566 3944.11 654.566 3946.41C654.566 3948.6 654.069 3950.56 653.075 3952.31C652.081 3954.06 650.511 3955.44 648.366 3956.47C646.221 3957.49 643.43 3958 639.993 3958H624.225ZM629.51 3953.31H639.993C643.444 3953.31 645.895 3952.64 647.343 3951.31C648.806 3949.96 649.538 3948.33 649.538 3946.41C649.538 3944.93 649.162 3943.57 648.409 3942.32C647.656 3941.05 646.583 3940.05 645.191 3939.29C643.799 3938.53 642.152 3938.14 640.248 3938.14H629.51V3953.31ZM629.51 3933.54H639.311C640.902 3933.54 642.336 3933.23 643.615 3932.6C644.907 3931.98 645.93 3931.1 646.683 3929.96C647.45 3928.82 647.833 3927.49 647.833 3925.95C647.833 3924.04 647.166 3922.41 645.831 3921.08C644.495 3919.73 642.379 3919.05 639.481 3919.05H629.51V3933.54ZM662.482 3958V3954.16L676.885 3938.4C678.576 3936.55 679.968 3934.95 681.061 3933.58C682.155 3932.2 682.965 3930.91 683.49 3929.7C684.03 3928.48 684.3 3927.2 684.3 3925.87C684.3 3924.34 683.931 3923.01 683.192 3921.88C682.468 3920.76 681.473 3919.9 680.209 3919.29C678.945 3918.67 677.525 3918.37 675.948 3918.37C674.272 3918.37 672.809 3918.72 671.559 3919.41C670.323 3920.1 669.364 3921.05 668.682 3922.29C668.015 3923.53 667.681 3924.97 667.681 3926.64H662.652C662.652 3924.08 663.242 3921.84 664.421 3919.9C665.6 3917.97 667.205 3916.47 669.236 3915.39C671.282 3914.31 673.576 3913.77 676.118 3913.77C678.675 3913.77 680.941 3914.31 682.915 3915.39C684.89 3916.47 686.438 3917.92 687.56 3919.75C688.682 3921.59 689.243 3923.62 689.243 3925.87C689.243 3927.47 688.952 3929.04 688.37 3930.58C687.801 3932.1 686.807 3933.8 685.387 3935.67C683.98 3937.53 682.027 3939.8 679.527 3942.49L669.726 3952.97V3953.31H690.01V3958H662.482Z" fill="#7E7E7E"/>
<path d="M2200 0H1100V2000H2200V0Z" fill="#343434"/>
<path d="M2200 250H1100V270H2200V250Z" fill="white"/>
<path d="M2200 663H1100V683H2200V663Z" fill="white"/>
<path d="M2200 1317H1100V1337H2200V1317Z" fill="white"/>
<path d="M2200 1730H1100V1750H2200V1730Z" fill="white"/>
<path d="M1541.9 1946.05V1941.36H1574.62V1946.05H1560.9V1985H1555.62V1946.05H1541.9ZM1579.03 1941.36H1585.08L1597.18 1961.73H1597.69L1609.8 1941.36H1615.85L1600.08 1967.02V1985H1594.8V1967.02L1579.03 1941.36ZM1622.68 1985V1941.36H1637.43C1640.85 1941.36 1643.65 1941.98 1645.82 1943.22C1648.01 1944.44 1649.63 1946.09 1650.68 1948.18C1651.73 1950.27 1652.26 1952.6 1652.26 1955.17C1652.26 1957.74 1651.73 1960.08 1650.68 1962.18C1649.64 1964.28 1648.04 1965.96 1645.86 1967.21C1643.69 1968.44 1640.91 1969.06 1637.51 1969.06H1626.94V1964.38H1637.34C1639.69 1964.38 1641.57 1963.97 1642.99 1963.16C1644.41 1962.35 1645.44 1961.26 1646.08 1959.88C1646.73 1958.49 1647.06 1956.92 1647.06 1955.17C1647.06 1953.42 1646.73 1951.86 1646.08 1950.48C1645.44 1949.11 1644.4 1948.03 1642.97 1947.24C1641.53 1946.45 1639.63 1946.05 1637.26 1946.05H1627.97V1985H1622.68ZM1660.77 1985V1941.36H1687.1V1946.05H1666.05V1960.8H1685.74V1965.48H1666.05V1980.31H1687.44V1985H1660.77ZM1714.7 1960.84V1965.53H1695.61V1960.84H1714.7ZM1726.02 1985H1720.48L1736.5 1941.36H1741.95L1757.98 1985H1752.44L1739.4 1948.27H1739.06L1726.02 1985ZM1728.06 1967.95H1750.39V1972.64H1728.06V1967.95Z" fill="#7E7E7E"/>
<mask id="mask3_1029_2718" style="mask-type:alpha" maskUnits="userSpaceOnUse" x="3300" y="0" width="1100" height="2000">
<path d="M4400 0H3300V2000H4400V0Z" fill="#D9D9D9"/>
</mask>
<g mask="url(#mask3_1029_2718)">
<path d="M4400 0H3300V2000H4400V0Z" fill="#343434"/>
<path d="M4400 250H3300V270H4400V250Z" fill="white"/>
<path d="M4400 663H3300V683H4400V663Z" fill="white"/>
<path d="M4400 1730H3300V1750H4400V1730Z" fill="white"/>
<path d="M4400 1317H3964V1337H4400V1317Z" fill="white"/>
<path d="M3617 683V1000H3637V683H3617Z" fill="white"/>
<path d="M4030 683V1000H4050V683H4030Z" fill="white"/>
<path d="M3741.9 1946.05V1941.36H3774.62V1946.05H3760.9V1985H3755.62V1946.05H3741.9ZM3779.03 1941.36H3785.08L3797.18 1961.73H3797.69L3809.8 1941.36H3815.85L3800.08 1967.02V1985H3794.8V1967.02L3779.03 1941.36ZM3822.68 1985V1941.36H3837.43C3840.85 1941.36 3843.65 1941.98 3845.82 1943.22C3848.01 1944.44 3849.63 1946.09 3850.68 1948.18C3851.73 1950.27 3852.26 1952.6 3852.26 1955.17C3852.26 1957.74 3851.73 1960.08 3850.68 1962.18C3849.64 1964.28 3848.04 1965.96 3845.86 1967.21C3843.69 1968.44 3840.91 1969.06 3837.51 1969.06H3826.94V1964.38H3837.34C3839.69 1964.38 3841.57 1963.97 3842.99 1963.16C3844.41 1962.35 3845.44 1961.26 3846.08 1959.88C3846.73 1958.49 3847.06 1956.92 3847.06 1955.17C3847.06 1953.42 3846.73 1951.86 3846.08 1950.48C3845.44 1949.11 3844.4 1948.03 3842.97 1947.24C3841.53 1946.45 3839.63 1946.05 3837.26 1946.05H3827.97V1985H3822.68ZM3860.77 1985V1941.36H3887.1V1946.05H3866.05V1960.8H3885.74V1965.48H3866.05V1980.31H3887.44V1985H3860.77ZM3914.7 1960.84V1965.53H3895.61V1960.84H3914.7ZM3926.02 1985H3920.48L3936.5 1941.36H3941.95L3957.98 1985H3952.44L3939.4 1948.27H3939.06L3926.02 1985ZM3928.06 1967.95H3950.39V1972.64H3928.06V1967.95ZM3964.01 1985V1981.16L3978.41 1965.4C3980.1 1963.55 3981.49 1961.95 3982.58 1960.58C3983.68 1959.2 3984.49 1957.91 3985.01 1956.7C3985.55 1955.48 3985.82 1954.2 3985.82 1952.87C3985.82 1951.34 3985.45 1950.01 3984.72 1948.88C3983.99 1947.76 3983 1946.9 3981.73 1946.29C3980.47 1945.67 3979.05 1945.37 3977.47 1945.37C3975.8 1945.37 3974.33 1945.72 3973.08 1946.41C3971.85 1947.1 3970.89 1948.05 3970.21 1949.29C3969.54 1950.53 3969.2 1951.97 3969.2 1953.64H3964.18C3964.18 1951.08 3964.77 1948.84 3965.94 1946.9C3967.12 1944.97 3968.73 1943.47 3970.76 1942.39C3972.81 1941.31 3975.1 1940.77 3977.64 1940.77C3980.2 1940.77 3982.46 1941.31 3984.44 1942.39C3986.41 1943.47 3987.96 1944.92 3989.08 1946.75C3990.21 1948.59 3990.77 1950.62 3990.77 1952.87C3990.77 1954.47 3990.48 1956.04 3989.89 1957.58C3989.32 1959.1 3988.33 1960.8 3986.91 1962.67C3985.5 1964.53 3983.55 1966.8 3981.05 1969.49L3971.25 1979.97V1980.31H3991.53V1985H3964.01Z" fill="#7E7E7E"/>
<path d="M3627 1000C3627 1042.94 3618.54 1085.46 3602.11 1125.14C3585.68 1164.81 3561.59 1200.86 3531.22 1231.22C3500.86 1261.59 3464.81 1285.68 3425.14 1302.11C3385.46 1318.54 3342.94 1327 3300 1327" stroke="white" stroke-width="20"/>
<path d="M3941.81 1366.52C3876.82 1479.99 3783 1574.3 3669.87 1639.88C3556.73 1705.46 3428.27 1740 3297.5 1740" stroke="white" stroke-width="10" stroke-dasharray="50 50"/>
<path d="M3958.44 1337.73C4012.04 1233.22 4040 1117.45 4040 1000" stroke="white" stroke-width="20"/>
<path d="M3300 1327H3987" stroke="white" stroke-width="20" stroke-dasharray="50 50"/>
<path d="M4009 707H3659V957H4009V707Z" fill="#414141"/>
<path d="M4400 1702V1352H4241V1702H4400Z" fill="#414141"/>
</g>
<mask id="mask4_1029_2718" style="mask-type:alpha" maskUnits="userSpaceOnUse" x="4400" y="0" width="1100" height="2000">
<path d="M5500 0H4400V2000H5500V0Z" fill="#D9D9D9"/>
</mask>
<g mask="url(#mask4_1029_2718)">
<path d="M5500 0H4400V2000H5500V0Z" fill="#343434"/>
<path d="M5069.57 1315.08C5122.64 1202.29 5146.37 1077.93 5138.54 953.535C5130.71 829.136 5091.59 708.729 5024.8 603.488C4958.01 498.247 4865.72 411.581 4756.5 351.533C4647.27 291.485 4524.64 260 4400 260" stroke="white" stroke-width="20"/>
<path d="M5169.18 2011.75C5177.36 1872.59 5146.08 1733.95 5078.92 1611.8" stroke="white" stroke-width="20"/>
<path d="M4716.99 1810.81C4660.73 1708.47 4629.49 1594.28 4625.83 1477.56C4622.16 1360.83 4646.17 1244.9 4695.89 1139.23" stroke="white" stroke-width="20"/>
<path d="M4695.88 1139.23C4719.33 1089.39 4729.81 1034.44 4726.35 979.468C4722.9 924.497 4705.61 871.29 4676.1 824.785C4646.58 778.279 4605.8 739.983 4557.53 713.448C4509.27 686.913 4455.08 673 4400 673" stroke="white" stroke-width="20"/>
<path d="M4695.88 1139.23C4719.33 1089.39 4729.81 1034.44 4726.35 979.468C4722.9 924.497 4705.61 871.29 4676.1 824.785C4646.58 778.279 4605.8 739.983 4557.53 713.448C4509.27 686.913 4455.08 673 4400 673" stroke="white" stroke-width="20"/>
<path d="M4751.58 2029.96C4765.94 1955.11 4753.71 1877.59 4716.99 1810.79" stroke="white" stroke-width="20"/>
<path d="M5078.92 1611.8C5054.06 1566.58 5040.26 1516.12 5038.64 1464.54C5037.02 1412.96 5047.62 1361.73 5069.6 1315.04" stroke="white" stroke-width="20"/>
<path d="M4535 1317H4400V1337H4535V1317Z" fill="white"/>
<path d="M4515 1337V1730H4535V1337H4515Z" fill="white"/>
<path d="M4535 1730H4400V1750H4535V1730Z" fill="white"/>
<path d="M4491 1702V1352H4400V1702H4491Z" fill="#414141"/>
<path d="M5057.1 80.9489V85.6364H5024.38V80.9489H5038.1V42H5043.38V80.9489H5057.1ZM5019.97 85.6364H5013.92L5001.82 65.267H5001.31L4989.2 85.6364H4983.15L4998.92 59.983V42H5004.2V59.983L5019.97 85.6364ZM4976.32 42V85.6364H4961.57C4958.15 85.6364 4955.35 85.0185 4953.18 83.7827C4950.99 82.5611 4949.37 80.9062 4948.32 78.8182C4947.27 76.7301 4946.74 74.4006 4946.74 71.8295C4946.74 69.2585 4947.27 66.9219 4948.32 64.8196C4949.36 62.7173 4950.96 61.0412 4953.14 59.7912C4955.31 58.5554 4958.09 57.9375 4961.49 57.9375H4972.06V62.625H4961.66C4959.31 62.625 4957.43 63.0298 4956.01 63.8395C4954.59 64.6491 4953.56 65.7429 4952.92 67.1207C4952.27 68.5128 4951.94 70.0824 4951.94 71.8295C4951.94 73.5767 4952.27 75.1392 4952.92 76.517C4953.56 77.8949 4954.6 78.9744 4956.03 79.7557C4957.47 80.5511 4959.37 80.9489 4961.74 80.9489H4971.03V42H4976.32ZM4938.23 42V85.6364H4911.9V80.9489H4932.95V66.2045H4913.26V61.517H4932.95V46.6875H4911.56V42H4938.23ZM4884.3 66.1619V61.4744H4903.39V66.1619H4884.3ZM4874.77 42V85.6364H4860.03C4856.62 85.6364 4853.82 85.054 4851.64 83.8892C4849.45 82.7386 4847.83 81.1548 4846.78 79.1378C4845.73 77.1207 4845.2 74.8267 4845.2 72.2557C4845.2 69.6847 4845.73 67.4048 4846.78 65.4162C4847.83 63.4276 4849.44 61.8651 4851.61 60.7287C4853.79 59.6065 4856.56 59.0455 4859.94 59.0455H4871.88V63.8182H4860.12C4857.79 63.8182 4855.91 64.1591 4854.49 64.8409C4853.06 65.5227 4852.02 66.4886 4851.38 67.7386C4850.73 69.0028 4850.4 70.5085 4850.4 72.2557C4850.4 74.0028 4850.73 75.5298 4851.38 76.8366C4852.03 78.1435 4853.08 79.152 4854.51 79.8622C4855.95 80.5866 4857.84 80.9489 4860.2 80.9489H4869.49V42H4874.77ZM4854.23 61.6023L4843.5 42H4849.63L4860.2 61.6023H4854.23Z" fill="#7E7E7E"/>
</g>
<path d="M4400 2000H3300V4000H4400V2000Z" fill="#343434"/>
<path d="M4040 2844C4040 2746.82 4020.86 2650.6 3983.67 2560.81C3946.48 2471.03 3891.97 2389.46 3823.26 2320.74C3754.54 2252.03 3672.97 2197.52 3583.19 2160.33C3493.4 2123.14 3397.18 2104 3300 2104" stroke="white" stroke-width="20"/>
<path d="M3627 3000C3627 3097.18 3646.14 3193.4 3683.33 3283.19C3720.52 3372.97 3775.03 3454.54 3843.74 3523.26C3912.46 3591.97 3994.03 3646.48 4083.81 3683.67C4173.6 3720.86 4269.82 3740 4367 3740" stroke="white" stroke-width="20"/>
<path d="M4367 3327C4324.06 3327 4281.54 3318.54 4241.86 3302.11C4202.19 3285.68 4166.14 3261.59 4135.78 3231.22C4105.41 3200.86 4081.32 3164.81 4064.89 3125.14C4048.46 3085.46 4040 3042.94 4040 3000" stroke="white" stroke-width="20"/>
<path d="M3300 2517C3342.94 2517 3385.46 2525.46 3425.14 2541.89C3464.81 2558.32 3500.86 2582.41 3531.22 2612.78C3561.59 2643.14 3585.68 2679.19 3602.11 2718.86C3618.54 2758.54 3627 2801.06 3627 2844" stroke="white" stroke-width="20"/>
<path d="M4030 2844V3000H4050V2844H4030Z" fill="white"/>
<path d="M3617 2844V3000H3637V2844H3617Z" fill="white"/>
<path d="M4400 3317H4367V3337H4400V3317Z" fill="white"/>
<path d="M4400 3730H4367V3750H4400V3730Z" fill="white"/>
<path d="M3723.9 3919.05V3914.36H3756.62V3919.05H3742.9V3958H3737.62V3919.05H3723.9ZM3761.03 3914.36H3767.08L3779.18 3934.73H3779.69L3791.8 3914.36H3797.85L3782.08 3940.02V3958H3776.8V3940.02L3761.03 3914.36ZM3804.68 3958V3914.36H3819.43C3822.85 3914.36 3825.65 3914.98 3827.82 3916.22C3830.01 3917.44 3831.63 3919.09 3832.68 3921.18C3833.73 3923.27 3834.26 3925.6 3834.26 3928.17C3834.26 3930.74 3833.73 3933.08 3832.68 3935.18C3831.64 3937.28 3830.04 3938.96 3827.86 3940.21C3825.69 3941.44 3822.91 3942.06 3819.51 3942.06H3808.94V3937.38H3819.34C3821.69 3937.38 3823.57 3936.97 3824.99 3936.16C3826.41 3935.35 3827.44 3934.26 3828.08 3932.88C3828.73 3931.49 3829.06 3929.92 3829.06 3928.17C3829.06 3926.42 3828.73 3924.86 3828.08 3923.48C3827.44 3922.11 3826.4 3921.03 3824.97 3920.24C3823.53 3919.45 3821.63 3919.05 3819.26 3919.05H3809.97V3958H3804.68ZM3842.77 3958V3914.36H3869.1V3919.05H3848.05V3933.8H3867.74V3938.48H3848.05V3953.31H3869.44V3958H3842.77ZM3896.7 3933.84V3938.53H3877.61V3933.84H3896.7ZM3906.23 3958V3914.36H3920.97C3924.38 3914.36 3927.18 3914.95 3929.36 3916.11C3931.55 3917.26 3933.17 3918.85 3934.22 3920.86C3935.27 3922.88 3935.8 3925.17 3935.8 3927.74C3935.8 3930.32 3935.27 3932.6 3934.22 3934.58C3933.17 3936.57 3931.56 3938.13 3929.39 3939.27C3927.21 3940.39 3924.44 3940.95 3921.06 3940.95H3909.12V3936.18H3920.88C3923.21 3936.18 3925.09 3935.84 3926.51 3935.16C3927.94 3934.48 3928.98 3933.51 3929.62 3932.26C3930.27 3931 3930.6 3929.49 3930.6 3927.74C3930.6 3926 3930.27 3924.47 3929.62 3923.16C3928.97 3921.86 3927.92 3920.85 3926.49 3920.14C3925.05 3919.41 3923.16 3919.05 3920.8 3919.05H3911.51V3958H3906.23ZM3926.77 3938.4L3937.5 3958H3931.37L3920.8 3938.4H3926.77ZM3944.6 3958V3914.36H3959.35C3962.76 3914.36 3965.56 3914.95 3967.74 3916.11C3969.93 3917.26 3971.55 3918.85 3972.6 3920.86C3973.65 3922.88 3974.18 3925.17 3974.18 3927.74C3974.18 3930.32 3973.65 3932.6 3972.6 3934.58C3971.55 3936.57 3969.94 3938.13 3967.76 3939.27C3965.59 3940.39 3962.81 3940.95 3959.43 3940.95H3947.5V3936.18H3959.26C3961.59 3936.18 3963.47 3935.84 3964.89 3935.16C3966.32 3934.48 3967.36 3933.51 3968 3932.26C3968.65 3931 3968.98 3929.49 3968.98 3927.74C3968.98 3926 3968.65 3924.47 3968 3923.16C3967.35 3921.86 3966.3 3920.85 3964.87 3920.14C3963.43 3919.41 3961.54 3919.05 3959.18 3919.05H3949.89V3958H3944.6ZM3965.14 3938.4L3975.88 3958H3969.75L3959.18 3938.4H3965.14Z" fill="#7E7E7E"/>
<path d="M2200 0H3300V2000H2200V0Z" fill="#343434"/>
<path d="M2200 250H3300V270H2200V250Z" fill="white"/>
<path d="M2200 1730H3300V1750H2200V1730Z" fill="white"/>
<path d="M3280 663H3300V1337H3280V663Z" fill="white"/>
<path d="M2200 663H2220V1337H2200V663Z" fill="white"/>
<path d="M2220 990H3280V1010H2220V990Z" fill="white"/>
<path d="M2920 1010H2940V1337H2920V1010Z" fill="white"/>
<path d="M3015 1317H2845C2842.24 1317 2840 1319.24 2840 1322V1332C2840 1334.76 2842.24 1337 2845 1337H3015C3017.76 1337 3020 1334.76 3020 1332V1322C3020 1319.24 3017.76 1317 3015 1317Z" fill="white"/>
<path d="M2655 1317H2485C2482.24 1317 2480 1319.24 2480 1322V1332C2480 1334.76 2482.24 1337 2485 1337H2655C2657.76 1337 2660 1334.76 2660 1332V1322C2660 1319.24 2657.76 1317 2655 1317Z" fill="white"/>
<path d="M2588 1623H2494C2492.34 1623 2491 1624.34 2491 1626V1640C2491 1641.66 2492.34 1643 2494 1643H2588C2589.66 1643 2591 1641.66 2591 1640V1626C2591 1624.34 2589.66 1623 2588 1623Z" fill="white"/>
<path d="M2588 1573H2494C2492.34 1573 2491 1574.34 2491 1576V1590C2491 1591.66 2492.34 1593 2494 1593H2588C2589.66 1593 2591 1591.66 2591 1590V1576C2591 1574.34 2589.66 1573 2588 1573Z" fill="white"/>
<path d="M2588 1523H2494C2492.34 1523 2491 1524.34 2491 1526V1540C2491 1541.66 2492.34 1543 2494 1543H2588C2589.66 1543 2591 1541.66 2591 1540V1526C2591 1524.34 2589.66 1523 2588 1523Z" fill="white"/>
<path d="M2588 1473H2494C2492.34 1473 2491 1474.34 2491 1476V1490C2491 1491.66 2492.34 1493 2494 1493H2588C2589.66 1493 2591 1491.66 2591 1490V1476C2591 1474.34 2589.66 1473 2588 1473Z" fill="white"/>
<path d="M2588 1423H2494C2492.34 1423 2491 1424.34 2491 1426V1440C2491 1441.66 2492.34 1443 2494 1443H2588C2589.66 1443 2591 1441.66 2591 1440V1426C2591 1424.34 2589.66 1423 2588 1423Z" fill="white"/>
<path d="M2588 1373H2494C2492.34 1373 2491 1374.34 2491 1376V1390C2491 1391.66 2492.34 1393 2494 1393H2588C2589.66 1393 2591 1391.66 2591 1390V1376C2591 1374.34 2589.66 1373 2588 1373Z" fill="white"/>
<path d="M2588 1673H2494C2492.34 1673 2491 1674.34 2491 1676V1690C2491 1691.66 2492.34 1693 2494 1693H2588C2589.66 1693 2591 1691.66 2591 1690V1676C2591 1674.34 2589.66 1673 2588 1673Z" fill="white"/>
<path d="M2295 1317H2205C2202.24 1317 2200 1319.24 2200 1322V1332C2200 1334.76 2202.24 1337 2205 1337H2295C2297.76 1337 2300 1334.76 2300 1332V1322C2300 1319.24 2297.76 1317 2295 1317Z" fill="white"/>
<path d="M3295 1317H3205C3202.24 1317 3200 1319.24 3200 1322V1332C3200 1334.76 3202.24 1337 3205 1337H3295C3297.76 1337 3300 1334.76 3300 1332V1322C3300 1319.24 3297.76 1317 3295 1317Z" fill="white"/>
<path d="M2560 1010H2580V1337H2560V1010Z" fill="white"/>
<path d="M2620 1337H2642V1730H2620V1337Z" fill="white"/>
<path d="M3128.57 1190H3135.95L3114.59 1131.82H3107.32L3085.95 1190H3093.34L3110.73 1141.02H3111.18L3128.57 1190ZM3125.84 1167.27H3096.07V1173.52H3125.84V1167.27Z" fill="white"/>
<path d="M2765.95 1190V1131.82H2745.61C2741.56 1131.82 2738.22 1132.52 2735.59 1133.92C2732.95 1135.3 2730.99 1137.17 2729.7 1139.52C2728.42 1141.85 2727.77 1144.43 2727.77 1147.27C2727.77 1149.77 2728.22 1151.84 2729.11 1153.47C2729.98 1155.09 2731.13 1156.38 2732.57 1157.33C2733.99 1158.28 2735.54 1158.98 2737.2 1159.43V1160C2735.42 1160.11 2733.63 1160.74 2731.84 1161.88C2730.04 1163.01 2728.53 1164.64 2727.32 1166.76C2726.11 1168.88 2725.5 1171.48 2725.5 1174.55C2725.5 1177.46 2726.16 1180.09 2727.49 1182.41C2728.81 1184.74 2730.91 1186.59 2733.77 1187.95C2736.63 1189.32 2740.35 1190 2744.93 1190H2765.95ZM2758.91 1183.75H2744.93C2740.33 1183.75 2737.06 1182.86 2735.13 1181.08C2733.18 1179.28 2732.2 1177.1 2732.2 1174.55C2732.2 1172.58 2732.71 1170.76 2733.71 1169.09C2734.71 1167.41 2736.14 1166.06 2738 1165.06C2739.86 1164.03 2742.05 1163.52 2744.59 1163.52H2758.91V1183.75ZM2758.91 1157.39H2745.84C2743.72 1157.39 2741.81 1156.97 2740.1 1156.14C2738.38 1155.3 2737.02 1154.13 2736.01 1152.61C2734.99 1151.1 2734.48 1149.32 2734.48 1147.27C2734.48 1144.72 2735.37 1142.55 2737.15 1140.77C2738.93 1138.97 2741.75 1138.07 2745.61 1138.07H2758.91V1157.39Z" fill="white"/>
<path d="M2361.14 1147H2368.18C2368.6 1144.97 2369.33 1143.19 2370.37 1141.66C2371.39 1140.12 2372.64 1138.84 2374.12 1137.8C2375.58 1136.73 2377.2 1135.94 2378.98 1135.41C2380.76 1134.88 2382.61 1134.61 2384.55 1134.61C2388.07 1134.61 2391.26 1135.5 2394.12 1137.28C2396.96 1139.06 2399.22 1141.69 2400.91 1145.15C2402.58 1148.62 2403.41 1152.87 2403.41 1157.91C2403.41 1162.95 2402.58 1167.2 2400.91 1170.66C2399.22 1174.13 2396.96 1176.75 2394.12 1178.53C2391.26 1180.31 2388.07 1181.2 2384.55 1181.2C2382.61 1181.2 2380.76 1180.94 2378.98 1180.41C2377.2 1179.88 2375.58 1179.09 2374.12 1178.05C2372.64 1176.99 2371.39 1175.69 2370.37 1174.16C2369.33 1172.61 2368.6 1170.83 2368.18 1168.82H2361.14C2361.67 1171.79 2362.63 1174.45 2364.03 1176.8C2365.44 1179.15 2367.18 1181.15 2369.26 1182.8C2371.34 1184.42 2373.68 1185.66 2376.28 1186.52C2378.85 1187.37 2381.61 1187.8 2384.55 1187.8C2389.51 1187.8 2393.92 1186.58 2397.78 1184.16C2401.65 1181.73 2404.69 1178.29 2406.9 1173.82C2409.12 1169.35 2410.23 1164.05 2410.23 1157.91C2410.23 1151.77 2409.12 1146.47 2406.9 1142C2404.69 1137.53 2401.65 1134.08 2397.78 1131.66C2393.92 1129.23 2389.51 1128.02 2384.55 1128.02C2381.61 1128.02 2378.85 1128.45 2376.28 1129.3C2373.68 1130.15 2371.34 1131.4 2369.26 1133.05C2367.18 1134.68 2365.44 1136.67 2364.03 1139.02C2362.63 1141.35 2361.67 1144.01 2361.14 1147Z" fill="white"/>
<path d="M2857.1 1934.05V1929.36H2824.38V1934.05H2838.1V1973H2843.38V1934.05H2857.1ZM2819.97 1929.36H2813.92L2801.82 1949.73H2801.31L2789.2 1929.36H2783.15L2798.92 1955.02V1973H2804.2V1955.02L2819.97 1929.36ZM2776.32 1973V1929.36H2761.57C2758.15 1929.36 2755.35 1929.98 2753.18 1931.22C2750.99 1932.44 2749.37 1934.09 2748.32 1936.18C2747.27 1938.27 2746.74 1940.6 2746.74 1943.17C2746.74 1945.74 2747.27 1948.08 2748.32 1950.18C2749.36 1952.28 2750.96 1953.96 2753.14 1955.21C2755.31 1956.44 2758.09 1957.06 2761.49 1957.06H2772.06V1952.38H2761.66C2759.31 1952.38 2757.43 1951.97 2756.01 1951.16C2754.59 1950.35 2753.56 1949.26 2752.92 1947.88C2752.27 1946.49 2751.94 1944.92 2751.94 1943.17C2751.94 1941.42 2752.27 1939.86 2752.92 1938.48C2753.56 1937.11 2754.6 1936.03 2756.03 1935.24C2757.47 1934.45 2759.37 1934.05 2761.74 1934.05H2771.03V1973H2776.32ZM2738.23 1973V1929.36H2711.9V1934.05H2732.95V1948.8H2713.26V1953.48H2732.95V1968.31H2711.56V1973H2738.23ZM2684.3 1948.84V1953.53H2703.39V1948.84H2684.3ZM2674.77 1973V1929.36H2659.52C2656.48 1929.36 2653.97 1929.89 2652 1930.94C2650.02 1931.98 2648.55 1933.38 2647.59 1935.14C2646.62 1936.88 2646.14 1938.82 2646.14 1940.95C2646.14 1942.83 2646.47 1944.38 2647.14 1945.6C2647.79 1946.82 2648.66 1947.79 2649.74 1948.5C2650.8 1949.21 2651.96 1949.73 2653.21 1950.07V1950.5C2651.88 1950.59 2650.53 1951.05 2649.19 1951.91C2647.84 1952.76 2646.71 1953.98 2645.8 1955.57C2644.89 1957.16 2644.43 1959.11 2644.43 1961.41C2644.43 1963.6 2644.93 1965.56 2645.93 1967.31C2646.92 1969.06 2648.49 1970.44 2650.63 1971.47C2652.78 1972.49 2655.57 1973 2659.01 1973H2674.77ZM2669.49 1968.31H2659.01C2655.56 1968.31 2653.11 1967.64 2651.66 1966.31C2650.19 1964.96 2649.46 1963.33 2649.46 1961.41C2649.46 1959.93 2649.84 1958.57 2650.59 1957.32C2651.34 1956.05 2652.42 1955.05 2653.81 1954.29C2655.2 1953.53 2656.85 1953.14 2658.75 1953.14H2669.49V1968.31ZM2669.49 1948.54H2659.69C2658.1 1948.54 2656.66 1948.23 2655.39 1947.6C2654.09 1946.98 2653.07 1946.1 2652.32 1944.96C2651.55 1943.82 2651.17 1942.49 2651.17 1940.95C2651.17 1939.04 2651.83 1937.41 2653.17 1936.08C2654.5 1934.73 2656.62 1934.05 2659.52 1934.05H2669.49V1948.54Z" fill="#7E7E7E"/>
<path d="M2200 2000H1100V4000H2200V2000Z" fill="#343434"/>
<path d="M2200 3730H1100V3750H2200V3730Z" fill="white"/>
<path d="M2180 2750V3337H2200V2750H2180Z" fill="white"/>
<path d="M1450 2010C1547.18 2010 1643.4 2029.14 1733.19 2066.33C1822.97 2103.52 1904.54 2158.03 1973.26 2226.74C2041.97 2295.46 2096.48 2377.03 2133.67 2466.81C2170.86 2556.6 2190 2652.82 2190 2750" stroke="white" stroke-width="20"/>
<path d="M1458 2000H1100V2020H1458V2000Z" fill="white"/>
<path d="M1541.9 3919.05V3914.36H1574.62V3919.05H1560.9V3958H1555.62V3919.05H1541.9ZM1579.03 3914.36H1585.08L1597.18 3934.73H1597.69L1609.8 3914.36H1615.85L1600.08 3940.02V3958H1594.8V3940.02L1579.03 3914.36ZM1622.68 3958V3914.36H1637.43C1640.85 3914.36 1643.65 3914.98 1645.82 3916.22C1648.01 3917.44 1649.63 3919.09 1650.68 3921.18C1651.73 3923.27 1652.26 3925.6 1652.26 3928.17C1652.26 3930.74 1651.73 3933.08 1650.68 3935.18C1649.64 3937.28 1648.04 3938.96 1645.86 3940.21C1643.69 3941.44 1640.91 3942.06 1637.51 3942.06H1626.94V3937.38H1637.34C1639.69 3937.38 1641.57 3936.97 1642.99 3936.16C1644.41 3935.35 1645.44 3934.26 1646.08 3932.88C1646.73 3931.49 1647.06 3929.92 1647.06 3928.17C1647.06 3926.42 1646.73 3924.86 1646.08 3923.48C1645.44 3922.11 1644.4 3921.03 1642.97 3920.24C1641.53 3919.45 1639.63 3919.05 1637.26 3919.05H1627.97V3958H1622.68ZM1660.77 3958V3914.36H1687.1V3919.05H1666.05V3933.8H1685.74V3938.48H1666.05V3953.31H1687.44V3958H1660.77ZM1714.7 3933.84V3938.53H1695.61V3933.84H1714.7ZM1724.23 3958V3914.36H1739.48C1742.52 3914.36 1745.03 3914.89 1747 3915.94C1748.98 3916.98 1750.45 3918.38 1751.41 3920.14C1752.38 3921.88 1752.86 3923.82 1752.86 3925.95C1752.86 3927.83 1752.53 3929.38 1751.86 3930.6C1751.21 3931.82 1750.34 3932.79 1749.26 3933.5C1748.2 3934.21 1747.04 3934.73 1745.79 3935.07V3935.5C1747.12 3935.59 1748.47 3936.05 1749.81 3936.91C1751.16 3937.76 1752.29 3938.98 1753.2 3940.57C1754.11 3942.16 1754.57 3944.11 1754.57 3946.41C1754.57 3948.6 1754.07 3950.56 1753.07 3952.31C1752.08 3954.06 1750.51 3955.44 1748.37 3956.47C1746.22 3957.49 1743.43 3958 1739.99 3958H1724.23ZM1729.51 3953.31H1739.99C1743.44 3953.31 1745.89 3952.64 1747.34 3951.31C1748.81 3949.96 1749.54 3948.33 1749.54 3946.41C1749.54 3944.93 1749.16 3943.57 1748.41 3942.32C1747.66 3941.05 1746.58 3940.05 1745.19 3939.29C1743.8 3938.53 1742.15 3938.14 1740.25 3938.14H1729.51V3953.31ZM1729.51 3933.54H1739.31C1740.9 3933.54 1742.34 3933.23 1743.61 3932.6C1744.91 3931.98 1745.93 3931.1 1746.68 3929.96C1747.45 3928.82 1747.83 3927.49 1747.83 3925.95C1747.83 3924.04 1747.17 3922.41 1745.83 3921.08C1744.5 3919.73 1742.38 3919.05 1739.48 3919.05H1729.51V3933.54ZM1777.82 3914.36V3958H1772.54V3919.9H1772.28L1761.63 3926.98V3921.61L1772.54 3914.36H1777.82Z" fill="#7E7E7E"/>
</g>
</svg>
