<svg width="3224" height="800" viewBox="0 0 3224 800" fill="none" xmlns="http://www.w3.org/2000/svg">
<path d="M800.328 0H0.328125V800H800.328V0Z" fill="white" fill-opacity="0.01"/>
<path d="M733.663 66.6665H66.9961V733.333H733.663V66.6665Z" stroke="black" stroke-width="66.6667" stroke-linecap="round" stroke-linejoin="round"/>
<path d="M233.66 66.6665V733.333" stroke="black" stroke-width="66.6667" stroke-linecap="round" stroke-linejoin="round"/>
<path d="M400.328 66.6665V733.333" stroke="black" stroke-width="66.6667" stroke-linecap="round" stroke-linejoin="round"/>
<path d="M566.996 66.6665V733.333" stroke="black" stroke-width="66.6667" stroke-linecap="round" stroke-linejoin="round"/>
<path d="M66.9961 233.333H733.663" stroke="black" stroke-width="66.6667" stroke-linecap="round" stroke-linejoin="round"/>
<path d="M66.9961 566.667H733.663" stroke="black" stroke-width="66.6667" stroke-linecap="round" stroke-linejoin="round"/>
<path d="M66.9961 400H733.663" stroke="black" stroke-width="66.6667" stroke-linecap="round" stroke-linejoin="round"/>
<path d="M3224 0H2424V800H3224V0Z" fill="white" fill-opacity="0.01"/>
<path d="M3224 0H2424V800H3224V0Z" fill="white" fill-opacity="0.01"/>
<path d="M2540.67 233.333H3107.33" stroke="black" stroke-width="66.6667" stroke-linecap="round" stroke-linejoin="round"/>
<path d="M2540.67 566.666L2824 66.6665" stroke="black" stroke-width="66.6667" stroke-linecap="round" stroke-linejoin="round"/>
<path d="M3107.33 566.666L2824 66.6665" stroke="black" stroke-width="66.6667" stroke-linecap="round" stroke-linejoin="round"/>
<path d="M3107.33 566.667H2540.67" stroke="black" stroke-width="66.6667" stroke-linecap="round" stroke-linejoin="round"/>
<path d="M3107.33 233.333L2824 733.333" stroke="black" stroke-width="66.6667" stroke-linecap="round" stroke-linejoin="round"/>
<path d="M2540.67 233.333L2824 733.333" stroke="black" stroke-width="66.6667" stroke-linecap="round" stroke-linejoin="round"/>
<path d="M2682.33 150L2540.67 233.333V400V566.666L2682.33 650L2824 733.333L2965.67 650L3107.33 566.666V400V233.333L2965.67 150L2824 66.6665L2682.33 150Z" stroke="black" stroke-width="66.6667" stroke-linecap="round" stroke-linejoin="round"/>
<g clip-path="url(#clip0_1029_1474)">
<path d="M2012.16 0H1212.16V800H2012.16V0Z" fill="white" fill-opacity="0.01"/>
<path d="M2012.16 0H1212.16V800H2012.16V0Z" fill="white" fill-opacity="0.01"/>
<path d="M1470.5 150L1328.83 233.333V400V566.666L1470.5 650L1612.17 733.333L1753.83 650L1895.5 566.666V400V233.333L1753.83 150L1612.17 66.6665L1470.5 150Z" stroke="black" stroke-width="66.6667" stroke-linecap="round" stroke-linejoin="round"/>
<path d="M1895.5 233.333L1328.83 566.667" stroke="black" stroke-width="66.6667" stroke-linecap="round" stroke-linejoin="round"/>
<path d="M1612.16 66.6665V733.333" stroke="black" stroke-width="66.6667" stroke-linecap="round" stroke-linejoin="round"/>
<path d="M1328.83 233.333L1895.5 566.667" stroke="black" stroke-width="66.6667" stroke-linecap="round" stroke-linejoin="round"/>
</g>
<path d="M1133.79 407.071C1137.69 403.166 1137.69 396.834 1133.79 392.929L1070.15 329.289C1066.24 325.384 1059.91 325.384 1056 329.289C1052.1 333.195 1052.1 339.526 1056 343.431L1112.57 400L1056 456.569C1052.1 460.474 1052.1 466.805 1056 470.711C1059.91 474.616 1066.24 474.616 1070.15 470.711L1133.79 407.071ZM917 410H1126.71V390H917V410Z" fill="black"/>
<path d="M2330.01 407.071C2333.92 403.166 2333.92 396.834 2330.01 392.929L2266.37 329.289C2262.47 325.384 2256.14 325.384 2252.23 329.289C2248.33 333.195 2248.33 339.526 2252.23 343.431L2308.8 400L2252.23 456.569C2248.33 460.474 2248.33 466.805 2252.23 470.711C2256.14 474.616 2262.47 474.616 2266.37 470.711L2330.01 407.071ZM2113.23 410H2322.94V390H2113.23V410Z" fill="black"/>
<defs>
<clipPath id="clip0_1029_1474">
<rect width="800" height="800" fill="white" transform="translate(1212.16)"/>
</clipPath>
</defs>
</svg>
