<svg width="58" height="36" viewBox="0 0 58 36" fill="none" xmlns="http://www.w3.org/2000/svg">
<g clip-path="url(#clip0_343_17)">
<path d="M19.3333 0H0V35.1515H19.3333V0Z" fill="#343434"/>
<path d="M19.3332 30.5818C17.6252 30.5818 15.934 30.2454 14.356 29.5918C12.778 28.9381 11.3443 27.9801 10.1365 26.7725C8.92882 25.5646 7.9708 24.131 7.31717 22.553C6.66357 20.9749 6.32715 19.2838 6.32715 17.5758C6.32715 15.8678 6.66357 14.1765 7.31717 12.5986C7.9708 11.0206 8.92882 9.58681 10.1365 8.37909C11.3443 7.17137 12.778 6.21335 14.356 5.55973C15.934 4.90612 17.6252 4.5697 19.3332 4.5697" stroke="white" stroke-width="0.351515"/>
<path d="M19.3332 23.323C18.5785 23.323 17.8312 23.1743 17.1338 22.8856C16.4365 22.5968 15.803 22.1734 15.2693 21.6396C14.7356 21.106 14.3123 20.4724 14.0234 19.7752C13.7346 19.0778 13.5859 18.3305 13.5859 17.5758C13.5859 16.821 13.7346 16.0737 14.0234 15.3764C14.3123 14.6791 14.7356 14.0455 15.2693 13.5118C15.803 12.9781 16.4365 12.5548 17.1338 12.266C17.8312 11.9771 18.5785 11.8285 19.3332 11.8285" stroke="white" stroke-width="0.351515"/>
<path d="M0.4375 34.0099V33.9275H1.01271V34.0099H0.77154V34.6945H0.678668V34.0099H0.4375ZM1.09013 33.9275H1.19648L1.40919 34.2855H1.41818L1.63089 33.9275H1.73724L1.46012 34.3785V34.6945H1.36725V34.3785L1.09013 33.9275ZM1.85736 34.6945V33.9275H2.1165C2.17666 33.9275 2.22584 33.9384 2.26405 33.9602C2.30249 33.9816 2.33096 34.0106 2.34943 34.0474C2.3679 34.0841 2.37713 34.125 2.37713 34.1702C2.37713 34.2154 2.3679 34.2565 2.34943 34.2934C2.3312 34.3303 2.303 34.3598 2.26479 34.3818C2.22659 34.4034 2.17766 34.4143 2.11799 34.4143H1.93225V34.3321H2.11501C2.15619 34.3321 2.18926 34.3249 2.21424 34.3106C2.2392 34.2964 2.2573 34.2772 2.26853 34.253C2.28002 34.2286 2.28577 34.201 2.28577 34.1702C2.28577 34.1394 2.28002 34.112 2.26853 34.0878C2.2573 34.0637 2.23907 34.0447 2.21387 34.0308C2.18865 34.0169 2.1552 34.0099 2.11349 34.0099H1.95023V34.6945H1.85736ZM2.52674 34.6945V33.9275H2.98961V34.0099H2.61962V34.2692H2.96564V34.3514H2.61962V34.6121H2.9956V34.6945H2.52674ZM3.47456 34.2699V34.3523H3.13902V34.2699H3.47456ZM3.87872 34.705C3.8223 34.705 3.77424 34.6896 3.73454 34.659C3.69486 34.6279 3.66452 34.5831 3.64355 34.5245C3.62258 34.4655 3.61209 34.3945 3.61209 34.311C3.61209 34.2282 3.62258 34.1574 3.64355 34.0987C3.66477 34.0398 3.69522 33.9948 3.73493 33.9639C3.77486 33.9326 3.82281 33.9171 3.87872 33.9171C3.93464 33.9171 3.98245 33.9326 4.02215 33.9639C4.0621 33.9948 4.09256 34.0398 4.11353 34.0987C4.13474 34.1574 4.14536 34.2282 4.14536 34.311C4.14536 34.3945 4.13486 34.4655 4.1139 34.5245C4.09293 34.5831 4.06259 34.6279 4.02291 34.659C3.9832 34.6896 3.93515 34.705 3.87872 34.705ZM3.87872 34.6226C3.93464 34.6226 3.97809 34.5955 4.00904 34.5418C4.04001 34.4878 4.05547 34.4108 4.05547 34.311C4.05547 34.2446 4.04836 34.1881 4.03414 34.1414C4.02015 34.0946 3.99994 34.0591 3.97347 34.0347C3.94726 34.0103 3.91568 33.998 3.87872 33.998C3.8233 33.998 3.77999 34.0252 3.74878 34.08C3.71756 34.1344 3.70197 34.2113 3.70197 34.311C3.70197 34.3774 3.70895 34.4338 3.72294 34.4802C3.73691 34.5266 3.75702 34.562 3.78323 34.5862C3.8097 34.6105 3.84152 34.6226 3.87872 34.6226Z" fill="#7E7E7E"/>
<path d="M38.6667 35.1515H58L58 -2.67029e-05H38.6667V35.1515Z" fill="#343434"/>
<path d="M38.667 4.5697C40.375 4.5697 42.0661 4.90612 43.6443 5.55973C45.2222 6.21335 46.6559 7.17137 47.8637 8.37909C49.0713 9.58681 50.0294 11.0206 50.683 12.5986C51.3367 14.1765 51.6731 15.8678 51.6731 17.5758C51.6731 19.2838 51.3367 20.9749 50.683 22.553C50.0294 24.131 49.0713 25.5646 47.8637 26.7725C46.6559 27.9801 45.2222 28.9381 43.6443 29.5918C42.0661 30.2454 40.375 30.5818 38.667 30.5818" stroke="white" stroke-width="0.351515"/>
<path d="M38.667 11.8285C39.4217 11.8285 40.169 11.9771 40.8664 12.266C41.5637 12.5548 42.1973 12.9781 42.7309 13.5118C43.2646 14.0455 43.688 14.6791 43.9768 15.3764C44.2656 16.0737 44.4143 16.821 44.4143 17.5758C44.4143 18.3305 44.2656 19.0778 43.9768 19.7752C43.688 20.4724 43.2646 21.106 42.7309 21.6396C42.1973 22.1734 41.5637 22.5968 40.8664 22.8856C40.169 23.1743 39.4217 23.323 38.667 23.323" stroke="white" stroke-width="0.351515"/>
<path d="M57.5623 1.14158V1.22396H56.9872V1.14158H57.2283V0.457019H57.3211V1.14158H57.5623ZM56.9097 1.22396H56.8034L56.5907 0.865954H56.5817L56.3689 1.22396H56.2625L56.5397 0.773084V0.457019H56.6325V0.773084L56.9097 1.22396ZM56.1425 0.457019V1.22396H55.8833C55.8232 1.22396 55.7739 1.2131 55.7358 1.19138C55.6973 1.16991 55.6688 1.14082 55.6504 1.10413C55.6319 1.06743 55.6226 1.02648 55.6226 0.981295C55.6226 0.936108 55.6319 0.89504 55.6504 0.858091C55.6687 0.821141 55.6968 0.791682 55.7351 0.769713C55.7732 0.747993 55.8221 0.737132 55.8819 0.737132H56.0676V0.819519H55.8848C55.8435 0.819519 55.8105 0.826634 55.7855 0.840865C55.7606 0.855094 55.7425 0.874318 55.7312 0.898534C55.7198 0.923001 55.714 0.950588 55.714 0.981295C55.714 1.012 55.7198 1.03947 55.7312 1.06368C55.7425 1.0879 55.7608 1.10687 55.7859 1.1206C55.8112 1.13458 55.8446 1.14158 55.8863 1.14158H56.0495V0.457019H56.1425ZM55.473 0.457019V1.22396H55.0103V1.14158H55.3802V0.882431H55.0342V0.800045H55.3802V0.539405H55.0043V0.457019H55.473ZM54.5252 0.881683V0.799296H54.8607V0.881683H54.5252ZM54.1211 0.446533C54.1775 0.446533 54.2255 0.461887 54.2652 0.492594C54.305 0.523552 54.3354 0.568365 54.3563 0.627034C54.3772 0.685954 54.3877 0.757106 54.3877 0.84049C54.3877 0.923376 54.3772 0.994153 54.3563 1.05282C54.335 1.11174 54.3046 1.15668 54.2649 1.18764C54.225 1.21884 54.177 1.23445 54.1211 1.23445C54.0652 1.23445 54.0174 1.21884 53.9777 1.18764C53.9378 1.15668 53.9072 1.11174 53.8863 1.05282C53.865 0.994153 53.8545 0.923376 53.8545 0.84049C53.8545 0.757106 53.8649 0.685954 53.886 0.627034C53.9069 0.568365 53.9373 0.523552 53.977 0.492594C54.0165 0.461887 54.0647 0.446533 54.1211 0.446533ZM54.1211 0.52892C54.0652 0.52892 54.0218 0.555883 53.9907 0.609808C53.9598 0.663734 53.9443 0.740628 53.9443 0.84049C53.9443 0.906898 53.9515 0.963445 53.9657 1.01013C53.9796 1.05682 53.9998 1.09239 54.0264 1.11686C54.0526 1.14133 54.0842 1.15356 54.1211 1.15356C54.1765 1.15356 54.2199 1.12622 54.251 1.07155C54.2823 1.01712 54.2979 0.940103 54.2979 0.84049C54.2979 0.774082 54.2909 0.717659 54.2768 0.671223C54.263 0.624788 54.2427 0.589461 54.2166 0.565245C54.1902 0.541027 54.1584 0.52892 54.1211 0.52892Z" fill="#7E7E7E"/>
<path d="M38.6663 0H19.333V35.1515H38.6663V0Z" fill="#343434"/>
<path d="M38.6663 4.39392H19.333V4.74544H38.6663V4.39392Z" fill="white"/>
<path d="M38.6663 11.6527H19.333V12.0042H38.6663V11.6527Z" fill="white"/>
<path d="M38.6663 23.1472H19.333V23.4987H38.6663V23.1472Z" fill="white"/>
<path d="M38.6663 30.4061H19.333V30.7576H38.6663V30.4061Z" fill="white"/>
<path d="M27.1001 34.2033V34.1208H27.6752V34.2033H27.434V34.8879H27.3412V34.2033H27.1001ZM27.7527 34.1208H27.859L28.0717 34.4789H28.0806L28.2935 34.1208H28.3998L28.1227 34.5718V34.8879H28.0299V34.5718L27.7527 34.1208ZM28.5199 34.8879V34.1208H28.7791C28.8392 34.1208 28.8884 34.1317 28.9266 34.1535C28.9651 34.175 28.9935 34.204 29.012 34.2407C29.0304 34.2775 29.0398 34.3184 29.0398 34.3636C29.0398 34.4087 29.0304 34.4499 29.012 34.4868C28.9937 34.5237 28.9656 34.5532 28.9273 34.5752C28.8891 34.5968 28.8403 34.6077 28.7805 34.6077H28.5947V34.5254H28.7775C28.8188 34.5254 28.8519 34.5182 28.8768 34.504C28.9018 34.4898 28.9199 34.4706 28.9311 34.4464C28.9426 34.4219 28.9484 34.3943 28.9484 34.3636C28.9484 34.3328 28.9426 34.3054 28.9311 34.2811C28.9199 34.2571 28.9016 34.2381 28.8765 34.2242C28.8512 34.2103 28.8178 34.2033 28.7761 34.2033H28.6128V34.8879H28.5199ZM29.1893 34.8879V34.1208H29.6521V34.2033H29.2821V34.4625H29.6282V34.5448H29.2821V34.8054H29.6581V34.8879H29.1893ZM30.1372 34.4632V34.5457H29.8017V34.4632H30.1372ZM30.3361 34.8879H30.2388L30.5203 34.1208H30.6161L30.8979 34.8879H30.8005L30.5713 34.2423H30.5653L30.3361 34.8879ZM30.372 34.5882H30.7645V34.6706H30.372V34.5882Z" fill="#7E7E7E"/>
</g>
<defs>
<clipPath id="clip0_343_17">
<rect width="58" height="35.1515" fill="white"/>
</clipPath>
</defs>
</svg>
