<?xml version="1.0" encoding="iso-8859-1"?>
<!-- Uploaded to: SVG Repo, www.svgrepo.com, Generator: SVG Repo Mixer Tools -->
<svg height="800px" width="800px" version="1.1" id="Layer_1" xmlns="http://www.w3.org/2000/svg" xmlns:xlink="http://www.w3.org/1999/xlink" 
	 viewBox="0 0 512 512" xml:space="preserve">
<path style="fill:#F2F2F4;" d="M512,187.733C512,84.052,427.948,0,324.267,0c-87.951,0-161.765,60.484-182.142,142.124
	C60.484,162.502,0,236.315,0,324.267C0,427.948,84.052,512,187.733,512c87.951,0,161.765-60.484,182.142-142.124
	C451.516,349.498,512,275.685,512,187.733z"/>
<path style="fill:#DFDFE1;" d="M324.267,0C300.177,0,277.161,4.564,256,12.831v486.339c56.098-21.915,99.079-70.014,113.876-129.294
	C451.516,349.498,512,275.685,512,187.733C512,84.052,427.948,0,324.267,0z"/>
<path style="fill:#7AB9E8;" d="M187.733,136.533c-15.73,0-31.007,1.946-45.609,5.591c-3.645,14.602-5.591,29.877-5.591,45.609
	c0,103.682,84.052,187.733,187.733,187.733c15.73,0,31.007-1.946,45.609-5.591c3.645-14.602,5.591-29.877,5.591-45.609
	C375.467,220.585,291.415,136.533,187.733,136.533z"/>
<path style="fill:#579ADF;" d="M256,149.338v213.323c21.159,8.264,44.182,12.805,68.267,12.805c15.73,0,31.007-1.946,45.609-5.591
	c3.645-14.602,5.591-29.877,5.591-45.609C375.467,244.669,325.927,176.649,256,149.338z"/>
</svg>