<svg width="4" height="5" viewBox="0 0 4 5" fill="none" xmlns="http://www.w3.org/2000/svg">
<path d="M0.198242 0.208252C0.284536 0.208252 0.354492 0.278208 0.354492 0.364502V0.749919L0.712965 0.678225C1.05683 0.609452 1.41326 0.642177 1.73885 0.772412L1.78128 0.789383C2.10651 0.919479 2.46449 0.943775 2.80433 0.858814C2.9621 0.819375 3.11491 0.938696 3.11491 1.10131V2.63611C3.11491 2.77033 3.02355 2.88733 2.89333 2.9199L2.84866 2.93106C2.47999 3.02323 2.09168 2.99688 1.73885 2.85575C1.41326 2.7255 1.05683 2.69279 0.712965 2.76156L0.354492 2.83325V4.53117C0.354492 4.61746 0.284536 4.68742 0.198242 4.68742C0.111948 4.68742 0.0419922 4.61746 0.0419922 4.53117V0.364502C0.0419922 0.278208 0.111948 0.208252 0.198242 0.208252Z" fill="#2E8440"/>
</svg>
